<svg width="113" height="119" viewBox="0 0 113 119" fill="none" xmlns="http://www.w3.org/2000/svg">
<path d="M56.7788 81.7129C52.6351 81.7129 48.5846 80.4128 45.1393 77.977C41.6939 75.5414 39.0086 72.0793 37.423 68.0288C35.8372 63.9784 35.4223 59.5213 36.2307 55.2213C37.039 50.9212 39.0344 46.9716 41.9644 43.8714C44.8945 40.7713 48.6274 38.6601 52.6915 37.8048C56.7556 36.9496 60.9681 37.3885 64.7963 39.0663C68.6245 40.744 71.8967 43.5853 74.1987 47.2306C76.5008 50.876 77.7295 55.1616 77.7295 59.5459C77.7236 65.4229 75.5144 71.0576 71.5866 75.2133C67.6589 79.3691 62.3334 81.7066 56.7788 81.7129ZM56.7788 41.0734C53.3258 41.0734 49.9503 42.1568 47.0791 44.1865C44.208 46.2163 41.9703 49.1013 40.6488 52.4768C39.3274 55.8521 38.9817 59.5664 39.6554 63.1497C40.329 66.733 41.9918 70.0244 44.4334 72.608C46.8752 75.1914 49.9861 76.9507 53.3727 77.6635C56.7594 78.3762 60.2699 78.0105 63.46 76.6123C66.6503 75.2141 69.377 72.8465 71.2954 69.8087C73.2138 66.7709 74.2378 63.1994 74.2378 59.5459C74.2327 54.6483 72.3917 49.9529 69.1186 46.4899C65.8454 43.0266 61.4077 41.0787 56.7788 41.0734Z" fill="white"/>
<path d="M56.7781 89.1013C51.2532 89.1013 45.8524 87.3679 41.2587 84.1202C36.6649 80.8726 33.0844 76.2567 30.9701 70.8558C28.8558 65.4552 28.3027 59.5126 29.3805 53.7793C30.4584 48.046 33.1189 42.7795 37.0256 38.6461C40.9322 34.5126 45.9097 31.6976 51.3284 30.5571C56.7472 29.4168 62.3637 30.002 67.468 32.239C72.5725 34.4761 76.9351 38.2644 80.0046 43.1249C83.074 47.9854 84.7124 53.6997 84.7124 59.5453C84.7037 67.3812 81.7578 74.8936 76.521 80.4344C71.2842 85.9752 64.184 89.0921 56.7781 89.1013ZM56.7781 33.6838C51.9439 33.6838 47.2181 35.2006 43.1985 38.0422C39.1789 40.884 36.0461 44.923 34.1962 49.6485C32.3462 54.3741 31.8621 59.5739 32.8052 64.5907C33.7483 69.6073 36.0763 74.2154 39.4946 77.8322C42.9129 81.4489 47.2682 83.912 52.0095 84.9099C56.751 85.9078 61.6655 85.3956 66.1319 83.4382C70.5981 81.4809 74.4155 78.1662 77.1013 73.9132C79.787 69.6603 81.2206 64.6602 81.2206 59.5453C81.2136 52.6887 78.6363 46.1149 74.0539 41.2666C69.4716 36.4181 63.2585 33.6912 56.7781 33.6838Z" fill="white"/>
<path d="M8.52387 77.6856C8.2906 77.6848 8.05979 77.6351 7.84471 77.5396C7.61223 77.4356 7.40381 77.2796 7.23381 77.0823C7.06381 76.8848 6.93629 76.6507 6.86003 76.3962C3.42076 65.0077 3.55465 52.7477 7.24172 41.4464C10.9288 30.1449 17.9713 20.4082 27.3181 13.6896C36.6647 6.97087 47.8145 3.63056 59.1028 4.16721C70.3912 4.70383 81.2128 9.08867 89.9524 16.6672V11.517C89.9524 11.0271 90.1364 10.5572 90.4637 10.2108C90.7911 9.86439 91.2353 9.66976 91.6983 9.66976H98.6818C99.1449 9.66976 99.589 9.86439 99.9164 10.2108C100.244 10.5572 100.428 11.0271 100.428 11.517V35.5313C100.428 36.0212 100.244 36.4911 99.9164 36.8375C99.589 37.1838 99.1449 37.3785 98.6818 37.3785H77.7311C77.2681 37.3785 76.824 37.1838 76.4966 36.8375C76.1692 36.4911 75.9852 36.0212 75.9852 35.5313V28.1423C75.9852 27.6524 76.1692 27.1825 76.4966 26.8361C76.824 26.4897 77.2681 26.295 77.7311 26.295H84.4668C77.6639 19.9318 69.09 16.0814 60.0382 15.3244C50.9863 14.5674 41.9473 16.9448 34.284 22.0981C26.6208 27.2515 20.7488 34.9014 17.5538 43.8942C14.3587 52.887 14.0137 62.7352 16.5707 71.9536C16.6891 72.371 16.6641 72.8194 16.5002 73.2193C16.3363 73.6192 16.044 73.9449 15.6751 74.1389L9.30428 77.5009C9.06117 77.6255 8.79401 77.6887 8.52387 77.6856ZM56.6686 7.82251C55.1742 7.82251 53.675 7.89394 52.1712 8.03679C45.0733 8.75663 38.2097 11.1085 32.0604 14.9278C25.9111 18.7471 20.6247 23.9418 16.5709 30.1484C12.5171 36.355 9.79374 43.4237 8.59135 50.86C7.38897 58.2965 7.73656 65.921 9.60981 73.2004L12.8292 71.5028C11.5186 66.1704 11.0898 60.6382 11.5617 55.151C12.3582 45.9114 15.6683 37.1142 21.0915 29.8237C26.5148 22.5329 33.8189 17.0616 42.1198 14.0714C50.4206 11.0812 59.3626 10.7003 67.8638 12.975C76.365 15.2496 84.0609 20.0822 90.0205 26.888C90.2506 27.151 90.4032 27.4793 90.4599 27.8327C90.5168 28.1861 90.4751 28.5492 90.3401 28.878C90.2054 29.2069 89.9829 29.4869 89.7001 29.6844C89.4174 29.8817 89.0864 29.9877 88.7477 29.9895H79.477V33.684H96.936V13.3643H93.4442V20.7717C93.4438 21.1334 93.3433 21.487 93.1547 21.7888C92.9663 22.0905 92.6981 22.3269 92.3839 22.469C92.0694 22.6111 91.7225 22.6523 91.3863 22.5878C91.05 22.5231 90.7389 22.3554 90.4919 22.1055C81.3769 12.913 69.2609 7.79665 56.6686 7.82251Z" fill="white"/>
<path d="M56.8919 114.963C44.7606 114.983 32.9981 110.551 23.6082 102.424V107.574C23.6082 108.064 23.4242 108.534 23.0968 108.881C22.7694 109.227 22.3253 109.422 21.8623 109.422H14.8787C14.4157 109.422 13.9716 109.227 13.6442 108.881C13.3168 108.534 13.1328 108.064 13.1328 107.574V83.5601C13.1328 83.0702 13.3168 82.6003 13.6442 82.2539C13.9716 81.9075 14.4157 81.7128 14.8787 81.7128H35.8294C36.2924 81.7128 36.7366 81.9075 37.064 82.2539C37.3913 82.6003 37.5753 83.0702 37.5753 83.5601V90.9491C37.5753 91.439 37.3913 91.9089 37.064 92.2553C36.7366 92.6018 36.2924 92.7963 35.8294 92.7963H29.0938C35.8967 99.1596 44.4706 103.01 53.5223 103.767C62.5743 104.524 71.6133 102.147 79.2765 96.9933C86.9398 91.8398 92.8118 84.19 96.0067 75.1972C99.2019 66.2044 99.5469 56.3563 96.9898 47.1378C96.8737 46.7216 96.8999 46.2753 97.0637 45.8774C97.2275 45.4795 97.5183 45.1553 97.8855 44.9618L104.256 41.5998C104.482 41.4806 104.729 41.4145 104.982 41.4062C105.234 41.3979 105.485 41.4475 105.717 41.5515C105.949 41.6557 106.158 41.8118 106.327 42.0093C106.497 42.2068 106.624 42.4408 106.701 42.6952C109.071 50.5866 109.743 58.9394 108.665 67.141C107.588 75.3426 104.789 83.1853 100.475 90.0936C96.16 97.0018 90.4386 102.801 83.7301 107.065C77.0215 111.33 69.496 113.951 61.7053 114.738C60.0974 114.888 58.4894 114.963 56.8919 114.963ZM21.8623 96.4724C22.3119 96.4727 22.7441 96.6567 23.0687 96.9859C30.8061 104.771 40.7391 109.663 51.3506 110.914C61.9623 112.166 72.6694 109.708 81.8371 103.916C91.0046 98.1251 98.1289 89.3182 102.122 78.8407C106.115 68.3633 106.757 56.791 103.951 45.8909L100.731 47.5886C102.04 52.9216 102.466 58.4537 101.992 63.9404C101.195 73.18 97.8853 81.9772 92.4621 89.2679C87.0388 96.5585 79.7347 102.03 71.4338 105.02C63.1329 108.01 54.191 108.391 45.6897 106.117C37.1886 103.842 29.4927 99.0092 23.5331 92.2034C23.3026 91.9398 23.1499 91.611 23.0933 91.2568C23.0367 90.9029 23.079 90.539 23.2148 90.21C23.3505 89.881 23.574 89.601 23.8578 89.404C24.1415 89.2073 24.4734 89.1022 24.8128 89.1018H34.0835V85.4073H16.6246V105.727H20.1164V98.3196C20.1164 97.8297 20.3004 97.3598 20.6278 97.0134C20.9551 96.6671 21.3993 96.4724 21.8623 96.4724Z" fill="white"/>
<path d="M48.29 62L46.75 59.28H46.09V62H44.69V55.02H47.31C47.85 55.02 48.31 55.1167 48.69 55.31C49.07 55.4967 49.3533 55.7533 49.54 56.08C49.7333 56.4 49.83 56.76 49.83 57.16C49.83 57.62 49.6967 58.0367 49.43 58.41C49.1633 58.7767 48.7667 59.03 48.24 59.17L49.91 62H48.29ZM46.09 58.23H47.26C47.64 58.23 47.9233 58.14 48.11 57.96C48.2967 57.7733 48.39 57.5167 48.39 57.19C48.39 56.87 48.2967 56.6233 48.11 56.45C47.9233 56.27 47.64 56.18 47.26 56.18H46.09V58.23ZM57.3663 55.02L54.8063 62H53.1063L50.5463 55.02H52.0463L53.9663 60.57L55.8763 55.02H57.3663ZM64.4756 55.02L61.9156 62H60.2156L57.6556 55.02H59.1556L61.0756 60.57L62.9856 55.02H64.4756ZM66.715 60.89H69.015V62H65.315V55.02H66.715V60.89Z" fill="white"/>
<rect x="1.41016" y="0.933594" width="110.737" height="117.224" stroke="#4A31DE" stroke-opacity="0.11"/>
</svg>
