<svg width="113" height="103" viewBox="0 0 113 103" fill="none" xmlns="http://www.w3.org/2000/svg">
<path d="M38.9463 31.2982L56.4735 46.4034L99.1389 14.376L104.806 19.5472L109.051 0L87.6302 3.91013L93.1223 8.92003L56.4735 35.7419L39.1212 20.4771L0 53.678L5.86057 59.0088L38.9463 31.2982Z" fill="#F37215"/>
<path d="M101.53 37.7461H82.7285V99.5129H71.4474V77.1584C71.4474 73.3958 67.4068 70.3452 62.4224 70.3452H56.2798L60.7923 86.8163L56.2798 92.993L51.7674 86.8163L56.2798 70.3452H50.3892C45.4048 70.3452 41.3643 73.3958 41.3643 77.1584V99.5129H30.0831V75.4924H11.2812V99.5129H0V102.944H112.812V99.5129H101.53V37.7461Z" fill="black"/>
<path d="M56.2773 70.3457C62.5077 70.3457 67.5584 65.7365 67.5584 60.0508C67.5584 54.3651 62.5077 49.7559 56.2773 49.7559C50.0468 49.7559 44.9961 54.3651 44.9961 60.0508C44.9961 65.7365 50.0468 70.3457 56.2773 70.3457Z" fill="black"/>
<path d="M30.0831 13.7256C30.0831 11.0109 29.2009 8.35722 27.5481 6.10006C25.8954 3.8429 23.5462 2.08366 20.7977 1.0448C18.0492 0.005947 15.0249 -0.265865 12.1071 0.263739C9.18932 0.793344 6.50917 2.10058 4.40557 4.02014C2.30198 5.93969 0.869407 8.38536 0.289026 11.0479C-0.291356 13.7104 0.00651718 16.4701 1.14498 18.9781C2.28344 21.4862 4.21135 23.6298 6.68492 25.138C9.15849 26.6462 12.0666 27.4512 15.0416 27.4512C19.0308 27.4512 22.8567 26.0051 25.6775 23.431C28.4984 20.857 30.0831 17.3658 30.0831 13.7256Z" fill="black"/>
</svg>
