<svg width="26" height="25" viewBox="0 0 26 25" fill="none" xmlns="http://www.w3.org/2000/svg">
<path fill-rule="evenodd" clip-rule="evenodd" d="M0 12.5C0 19.4035 5.82032 25 13 25C20.1797 25 26 19.4035 26 12.5C26 5.59646 20.1797 0 13 0C5.82032 0 0 5.59646 0 12.5ZM11.252 17.9304C10.966 18.1982 10.6397 17.8972 10.6668 17.5064L10.7761 15.9323C10.8156 15.3629 11.0801 14.8326 11.5112 14.4585L16.8658 9.81198C17.1304 9.5862 16.8081 9.47609 16.4569 9.68088L11.8858 12.4538C10.0597 13.5616 7.84956 13.8435 5.8038 13.2295C5.10981 13.0252 5.10483 12.5667 5.95958 12.237L18.4818 7.59422C19.0538 7.34453 19.6058 7.7263 19.3874 8.56797L17.2549 18.2308C17.106 18.9174 16.6745 19.0817 16.0767 18.7645L14.5708 17.6947C13.5566 16.9742 12.1754 17.067 11.2667 17.9167C11.2617 17.9212 11.2569 17.9258 11.252 17.9304Z" fill="#D0D0D0"/>
</svg>
