<svg width="27" height="27" viewBox="0 0 27 27" fill="none" xmlns="http://www.w3.org/2000/svg">
<path fill-rule="evenodd" clip-rule="evenodd" d="M13.5 0C6.04418 0 0 6.04418 0 13.5C0 20.9558 6.04418 27 13.5 27C20.9558 27 27 20.9558 27 13.5C27 6.04418 20.9558 0 13.5 0ZM19.1259 8.85898C19.7455 9.02903 20.2335 9.52999 20.3991 10.1662C20.7 11.3192 20.7 13.725 20.7 13.725C20.7 13.725 20.7 16.1307 20.3991 17.2838C20.2335 17.92 19.7455 18.421 19.1259 18.5911C18.003 18.9 13.5 18.9 13.5 18.9C13.5 18.9 8.99696 18.9 7.87404 18.5911C7.25439 18.421 6.76643 17.92 6.60083 17.2838C6.3 16.1307 6.3 13.725 6.3 13.725C6.3 13.725 6.3 11.3192 6.60083 10.1662C6.76643 9.52999 7.25439 9.02903 7.87404 8.85898C8.99696 8.55 13.5 8.55 13.5 8.55C13.5 8.55 18.003 8.55 19.1259 8.85898Z" fill="#BFBFBF"/>
</svg>
