<svg width="324" height="76" viewBox="0 0 324 76" fill="none" xmlns="http://www.w3.org/2000/svg">
<rect x="28.6641" y="-59" width="20.6057" height="238.761" transform="rotate(26 28.6641 -59)" fill="#DE8F31" fill-opacity="0.11"/>
<rect x="74.8477" y="-59" width="20.6057" height="238.761" transform="rotate(26 74.8477 -59)" fill="#DE8F31" fill-opacity="0.11"/>
<rect x="121.031" y="-59" width="20.6057" height="238.761" transform="rotate(26 121.031 -59)" fill="#DE8F31" fill-opacity="0.11"/>
<rect x="167.215" y="-59" width="20.6057" height="238.761" transform="rotate(26 167.215 -59)" fill="#DE8F31" fill-opacity="0.11"/>
<rect x="213.398" y="-59" width="20.6057" height="238.761" transform="rotate(26 213.398 -59)" fill="#DE8F31" fill-opacity="0.11"/>
<rect x="259.582" y="-59" width="20.6057" height="238.761" transform="rotate(26 259.582 -59)" fill="#DE8F31" fill-opacity="0.11"/>
<rect x="305.766" y="-59" width="20.6057" height="238.761" transform="rotate(26 305.766 -59)" fill="#DE8F31" fill-opacity="0.11"/>
<rect x="351.949" y="-59" width="20.6057" height="238.761" transform="rotate(26 351.949 -59)" fill="#DE8F31" fill-opacity="0.11"/>
<rect x="398.133" y="-59" width="20.6057" height="238.761" transform="rotate(26 398.133 -59)" fill="#DE8F31" fill-opacity="0.11"/>
</svg>
