<svg width="1519" height="650" viewBox="0 0 1519 650" fill="none" xmlns="http://www.w3.org/2000/svg">
<line y1="-0.5" x2="1265.37" y2="-0.5" transform="matrix(-0.810252 0.586081 -0.810252 -0.586081 555.268 -245)" stroke="url(#paint0_linear_1097_99)" stroke-opacity="0.1"/>
<line y1="-0.5" x2="1265.37" y2="-0.5" transform="matrix(-0.810252 0.586081 -0.810252 -0.586081 1180.27 -91)" stroke="url(#paint1_linear_1097_99)" stroke-opacity="0.1"/>
<line y1="-0.5" x2="1265.37" y2="-0.5" transform="matrix(-0.810252 0.586081 -0.810252 -0.586081 1787.27 126)" stroke="url(#paint2_linear_1097_99)" stroke-opacity="0.1"/>
<line y1="-0.5" x2="1265.37" y2="-0.5" transform="matrix(-0.810252 0.586081 -0.810252 -0.586081 674.941 -171.355)" stroke="url(#paint3_linear_1097_99)" stroke-opacity="0.1"/>
<line y1="-0.5" x2="1265.37" y2="-0.5" transform="matrix(-0.810252 0.586081 -0.810252 -0.586081 1299.94 -17.3555)" stroke="url(#paint4_linear_1097_99)" stroke-opacity="0.1"/>
<line y1="-0.5" x2="1265.37" y2="-0.5" transform="matrix(-0.810252 0.586081 -0.810252 -0.586081 1906.94 199.645)" stroke="url(#paint5_linear_1097_99)" stroke-opacity="0.1"/>
<line y1="-0.5" x2="1265.37" y2="-0.5" transform="matrix(-0.810252 0.586081 -0.810252 -0.586081 810.691 -91.252)" stroke="url(#paint6_linear_1097_99)" stroke-opacity="0.1"/>
<line y1="-0.5" x2="1265.37" y2="-0.5" transform="matrix(-0.810252 0.586081 -0.810252 -0.586081 1435.69 62.748)" stroke="url(#paint7_linear_1097_99)" stroke-opacity="0.1"/>
<line y1="-0.5" x2="1265.37" y2="-0.5" transform="matrix(-0.810252 0.586081 -0.810252 -0.586081 2042.69 279.748)" stroke="url(#paint8_linear_1097_99)" stroke-opacity="0.1"/>
<line y1="-0.5" x2="1265.37" y2="-0.5" transform="matrix(-0.810252 0.586081 -0.810252 -0.586081 900 -17.6074)" stroke="url(#paint9_linear_1097_99)" stroke-opacity="0.1"/>
<line y1="-0.5" x2="1265.37" y2="-0.5" transform="matrix(-0.810252 0.586081 -0.810252 -0.586081 1525 136.393)" stroke="url(#paint10_linear_1097_99)" stroke-opacity="0.1"/>
<line y1="-0.5" x2="1265.37" y2="-0.5" transform="matrix(-0.810252 0.586081 -0.810252 -0.586081 2132 353.393)" stroke="url(#paint11_linear_1097_99)" stroke-opacity="0.1"/>
<defs>
<linearGradient id="paint0_linear_1097_99" x1="632.684" y1="0" x2="632.684" y2="1" gradientUnits="userSpaceOnUse">
<stop stop-color="#D8B8FF"/>
<stop offset="1" stop-color="#ECECEC" stop-opacity="0"/>
</linearGradient>
<linearGradient id="paint1_linear_1097_99" x1="632.684" y1="0" x2="632.684" y2="1" gradientUnits="userSpaceOnUse">
<stop stop-color="#D8B8FF"/>
<stop offset="1" stop-color="#ECECEC" stop-opacity="0"/>
</linearGradient>
<linearGradient id="paint2_linear_1097_99" x1="632.684" y1="0" x2="632.684" y2="1" gradientUnits="userSpaceOnUse">
<stop stop-color="#D8B8FF"/>
<stop offset="1" stop-color="#ECECEC" stop-opacity="0"/>
</linearGradient>
<linearGradient id="paint3_linear_1097_99" x1="632.684" y1="0" x2="632.684" y2="1" gradientUnits="userSpaceOnUse">
<stop stop-color="#D8B8FF"/>
<stop offset="1" stop-color="#ECECEC" stop-opacity="0"/>
</linearGradient>
<linearGradient id="paint4_linear_1097_99" x1="632.684" y1="0" x2="632.684" y2="1" gradientUnits="userSpaceOnUse">
<stop stop-color="#D8B8FF"/>
<stop offset="1" stop-color="#ECECEC" stop-opacity="0"/>
</linearGradient>
<linearGradient id="paint5_linear_1097_99" x1="632.684" y1="0" x2="632.684" y2="1" gradientUnits="userSpaceOnUse">
<stop stop-color="#D8B8FF"/>
<stop offset="1" stop-color="#ECECEC" stop-opacity="0"/>
</linearGradient>
<linearGradient id="paint6_linear_1097_99" x1="632.684" y1="0" x2="632.684" y2="1" gradientUnits="userSpaceOnUse">
<stop stop-color="#D8B8FF"/>
<stop offset="1" stop-color="#ECECEC" stop-opacity="0"/>
</linearGradient>
<linearGradient id="paint7_linear_1097_99" x1="632.684" y1="0" x2="632.684" y2="1" gradientUnits="userSpaceOnUse">
<stop stop-color="#D8B8FF"/>
<stop offset="1" stop-color="#ECECEC" stop-opacity="0"/>
</linearGradient>
<linearGradient id="paint8_linear_1097_99" x1="632.684" y1="0" x2="632.684" y2="1" gradientUnits="userSpaceOnUse">
<stop stop-color="#D8B8FF"/>
<stop offset="1" stop-color="#ECECEC" stop-opacity="0"/>
</linearGradient>
<linearGradient id="paint9_linear_1097_99" x1="632.684" y1="0" x2="632.684" y2="1" gradientUnits="userSpaceOnUse">
<stop stop-color="#D8B8FF"/>
<stop offset="1" stop-color="#ECECEC" stop-opacity="0"/>
</linearGradient>
<linearGradient id="paint10_linear_1097_99" x1="632.684" y1="0" x2="632.684" y2="1" gradientUnits="userSpaceOnUse">
<stop stop-color="#D8B8FF"/>
<stop offset="1" stop-color="#ECECEC" stop-opacity="0"/>
</linearGradient>
<linearGradient id="paint11_linear_1097_99" x1="632.684" y1="0" x2="632.684" y2="1" gradientUnits="userSpaceOnUse">
<stop stop-color="#D8B8FF"/>
<stop offset="1" stop-color="#ECECEC" stop-opacity="0"/>
</linearGradient>
</defs>
</svg>
