<svg width="665" height="665" viewBox="0 0 665 665" fill="none" xmlns="http://www.w3.org/2000/svg">
<mask id="path-1-inside-1_0_1" fill="white">
<path d="M332.805 664.804C406.041 664.804 477.222 640.588 535.265 595.927C593.308 551.266 634.954 488.666 653.72 417.875C672.486 347.084 667.319 272.074 639.022 204.526C610.724 136.977 560.886 80.6802 497.267 44.4011L332.805 332.804L332.805 664.804Z"/>
</mask>
<path d="M332.805 664.804C406.041 664.804 477.222 640.588 535.265 595.927C593.308 551.266 634.954 488.666 653.72 417.875C672.486 347.084 667.319 272.074 639.022 204.526C610.724 136.977 560.886 80.6802 497.267 44.4011L332.805 332.804L332.805 664.804Z" fill="url(#paint0_linear_0_1)" fill-opacity="0.2" stroke="#D8B8FF" stroke-width="2" mask="url(#path-1-inside-1_0_1)"/>
<mask id="path-2-inside-2_0_1" fill="white">
<path d="M1.65824 356.588C-2.6639 296.411 9.49367 236.193 36.8245 182.407C64.1553 128.62 105.626 83.2974 156.78 51.3095C207.935 19.3216 266.839 1.87766 327.162 0.85218C387.486 -0.173298 446.949 15.2585 499.16 45.4892L332.805 332.804L1.65824 356.588Z"/>
</mask>
<path d="M1.65824 356.588C-2.6639 296.411 9.49367 236.193 36.8245 182.407C64.1553 128.62 105.626 83.2974 156.78 51.3095C207.935 19.3216 266.839 1.87766 327.162 0.85218C387.486 -0.173298 446.949 15.2585 499.16 45.4892L332.805 332.804L1.65824 356.588Z" fill="url(#paint1_linear_0_1)" fill-opacity="0.2" stroke="#D8B8FF" stroke-width="2" mask="url(#path-2-inside-2_0_1)"/>
<mask id="path-3-inside-3_0_1" fill="white">
<path d="M333.331 664.804C249.2 664.937 168.156 633.125 106.58 575.798C45.0034 518.471 7.4876 439.905 1.61502 355.979L332.805 332.804L333.331 664.804Z"/>
</mask>
<path d="M333.331 664.804C249.2 664.937 168.156 633.125 106.58 575.798C45.0034 518.471 7.4876 439.905 1.61502 355.979L332.805 332.804L333.331 664.804Z" fill="url(#paint2_linear_0_1)" fill-opacity="0.2" stroke="#D8B8FF" stroke-width="2" mask="url(#path-3-inside-3_0_1)"/>
<path d="M455.156 353.691C455.106 353.684 455.085 353.649 455.093 353.587L456.802 340.665C456.81 340.602 456.845 340.575 456.908 340.583L458.999 340.857C459.062 340.865 459.09 340.9 459.081 340.963L457.664 351.662L461.545 352.169C461.607 352.177 461.635 352.213 461.626 352.275L461.348 354.404C461.34 354.467 461.304 354.494 461.242 354.486L455.156 353.691ZM462.663 354.672C462.601 354.664 462.573 354.628 462.581 354.565L464.292 341.625C464.299 341.575 464.327 341.553 464.377 341.56L466.487 341.835C466.538 341.842 466.56 341.87 466.553 341.921L464.88 354.866C464.872 354.929 464.842 354.957 464.792 354.95L462.663 354.672ZM472.565 357.193L471.438 355.704C470.959 355.846 470.475 355.885 469.985 355.821C469.32 355.734 468.727 355.484 468.206 355.071C467.685 354.658 467.293 354.14 467.029 353.518C466.765 352.896 466.679 352.24 466.769 351.549L467.569 345.579C467.656 344.913 467.899 344.319 468.3 343.797C468.702 343.262 469.201 342.861 469.798 342.594C470.409 342.316 471.06 342.222 471.751 342.313C472.417 342.4 473.004 342.649 473.512 343.06C474.035 343.461 474.422 343.965 474.675 344.573C474.94 345.182 475.027 345.839 474.935 346.542L474.173 352.517C474.125 352.881 474.029 353.226 473.884 353.552C473.74 353.878 473.567 354.175 473.366 354.442L474.379 355.782C474.422 355.839 474.423 355.883 474.38 355.916L472.697 357.21C472.642 357.241 472.598 357.235 472.565 357.193ZM470.283 353.541C470.711 353.597 471.07 353.484 471.362 353.203C471.669 352.911 471.846 352.583 471.893 352.219L472.655 346.244C472.708 345.842 472.621 345.479 472.395 345.156C472.171 344.82 471.858 344.626 471.456 344.573C471.029 344.518 470.664 344.623 470.36 344.89C470.07 345.159 469.899 345.488 469.848 345.877L469.068 351.849C469.008 352.301 469.105 352.685 469.358 352.999C469.623 353.314 469.932 353.495 470.283 353.541ZM478.853 356.98C478.187 356.893 477.594 356.643 477.073 356.23C476.554 355.804 476.163 355.28 475.899 354.658C475.648 354.038 475.568 353.382 475.658 352.692L476.927 343.277C476.933 343.226 476.962 343.205 477.012 343.211L479.122 343.487C479.172 343.494 479.194 343.522 479.188 343.572L477.956 352.992C477.9 353.419 477.985 353.801 478.209 354.136C478.448 354.461 478.762 354.649 479.151 354.7C479.553 354.753 479.905 354.652 480.206 354.397C480.522 354.132 480.708 353.786 480.763 353.359L481.995 343.939C482.001 343.889 482.03 343.867 482.08 343.874L484.19 344.149C484.24 344.156 484.262 344.184 484.256 344.235L483.062 353.659C482.97 354.363 482.717 354.981 482.302 355.515C481.9 356.05 481.394 356.45 480.785 356.715C480.188 356.982 479.544 357.07 478.853 356.98ZM484.171 357.483C484.108 357.475 484.081 357.44 484.089 357.377L485.8 344.436C485.806 344.386 485.835 344.364 485.885 344.371L487.995 344.647C488.045 344.653 488.067 344.682 488.06 344.732L486.387 357.677C486.379 357.74 486.35 357.768 486.3 357.762L484.171 357.483ZM488.126 358C488.064 357.992 488.036 357.957 488.045 357.894L489.774 344.956C489.781 344.906 489.809 344.884 489.859 344.891L493.385 345.332C494.077 345.41 494.684 345.655 495.205 346.068C495.738 346.483 496.137 347.001 496.4 347.623C496.665 348.233 496.753 348.883 496.663 349.574L495.956 354.981C495.861 355.709 495.598 356.352 495.167 356.909C494.738 357.453 494.206 357.863 493.57 358.137C492.933 358.412 492.244 358.507 491.501 358.422L488.126 358ZM490.634 355.971L491.802 356.124C492.266 356.185 492.677 356.072 493.034 355.787C493.403 355.503 493.617 355.135 493.676 354.683L494.386 349.257C494.438 348.855 494.332 348.49 494.069 348.162C493.819 347.823 493.493 347.633 493.089 347.593L491.768 347.439L490.634 355.971ZM497.013 359.162C496.95 359.154 496.923 359.118 496.931 359.056L498.642 346.115C498.648 346.065 498.677 346.043 498.727 346.05L500.837 346.325C500.887 346.332 500.909 346.36 500.902 346.411L499.229 359.356C499.221 359.419 499.192 359.447 499.142 359.44L497.013 359.162ZM502.758 359.913C502.708 359.907 502.687 359.872 502.695 359.809L504.099 349.07L501.65 348.75C501.587 348.742 501.56 348.707 501.568 348.644L501.862 346.536C501.869 346.486 501.897 346.464 501.948 346.471L509.107 347.407C509.17 347.415 509.198 347.444 509.191 347.494L508.915 349.604C508.907 349.667 508.878 349.695 508.828 349.689L506.36 349.366L504.975 360.107C504.966 360.17 504.937 360.198 504.887 360.191L502.758 359.913ZM510.169 360.882C510.132 360.877 510.116 360.849 510.123 360.799L510.841 355.451L509.311 347.51C509.305 347.458 509.328 347.435 509.378 347.442L511.469 347.715C511.532 347.724 511.566 347.754 511.572 347.805L512.304 353.056L514.379 348.172C514.398 348.124 514.433 348.103 514.483 348.109L516.593 348.385C516.644 348.392 516.659 348.419 516.64 348.468L513.112 355.671L512.421 361.1C512.415 361.15 512.386 361.172 512.336 361.165L510.169 360.882ZM522.506 362.495C522.456 362.488 522.435 362.453 522.443 362.391L522.731 360.186L518.662 359.654C518.611 359.648 518.59 359.613 518.598 359.55L518.869 357.478L524.097 349.443C524.129 349.396 524.17 349.376 524.22 349.382L526.349 349.66C526.386 349.665 526.402 349.693 526.395 349.743L525.304 358.242L526.622 358.415C526.685 358.423 526.712 358.458 526.704 358.521L526.436 360.575C526.428 360.638 526.398 360.666 526.348 360.659L525.011 360.484L524.722 362.688C524.714 362.751 524.685 362.779 524.635 362.773L522.506 362.495ZM521.102 357.693L523.024 357.944L523.561 353.837L521.102 357.693ZM527.37 363.13C527.307 363.122 527.28 363.087 527.288 363.024L528.999 350.083C529.005 350.033 529.034 350.011 529.084 350.018L531.194 350.294C531.244 350.3 531.266 350.329 531.259 350.379L529.586 363.324C529.578 363.387 529.549 363.415 529.499 363.409L527.37 363.13ZM531.306 363.645C531.256 363.638 531.234 363.61 531.241 363.56L531.519 361.431C531.526 361.381 531.554 361.359 531.604 361.365L533.733 361.644C533.784 361.65 533.805 361.679 533.799 361.729L533.521 363.858C533.514 363.908 533.486 363.93 533.435 363.923L531.306 363.645ZM538.387 364.762C537.721 364.675 537.128 364.425 536.607 364.012C536.1 363.588 535.714 363.071 535.449 362.462C535.184 361.852 535.096 361.209 535.184 360.53L535.337 359.362C535.406 358.835 535.57 358.358 535.83 357.932C536.092 357.494 536.416 357.121 536.801 356.813C536.564 356.476 536.39 356.096 536.279 355.672C536.183 355.238 536.165 354.789 536.225 354.324C536.311 353.671 536.539 353.1 536.909 352.612C537.294 352.113 537.77 351.741 538.339 351.496C538.907 351.251 539.512 351.17 540.153 351.254C540.793 351.338 541.349 351.577 541.822 351.97C542.308 352.353 542.674 352.829 542.919 353.398C543.164 353.966 543.244 354.577 543.159 355.23C543.098 355.695 542.959 356.118 542.744 356.498C542.54 356.88 542.28 357.21 541.963 357.488C542.258 357.872 542.469 358.308 542.596 358.797C542.737 359.288 542.772 359.798 542.703 360.325L542.551 361.493C542.462 362.171 542.21 362.777 541.796 363.311C541.395 363.833 540.897 364.228 540.3 364.495C539.703 364.762 539.065 364.851 538.387 364.762ZM539.527 356.039C539.854 356.082 540.145 355.999 540.403 355.79C540.674 355.57 540.833 355.284 540.879 354.932C540.925 354.581 540.845 354.264 540.639 353.981C540.446 353.7 540.186 353.539 539.859 353.496C539.533 353.453 539.234 353.542 538.962 353.762C538.691 353.982 538.532 354.268 538.486 354.619C538.442 354.959 538.523 355.269 538.728 355.552C538.934 355.834 539.2 355.997 539.527 356.039ZM538.682 362.501C539.072 362.552 539.417 362.451 539.719 362.196C540.033 361.943 540.217 361.61 540.271 361.195L540.424 360.027C540.476 359.625 540.383 359.262 540.145 358.937C539.92 358.601 539.613 358.408 539.224 358.357C538.835 358.306 538.483 358.407 538.169 358.659C537.855 358.912 537.671 359.246 537.617 359.66L537.464 360.828C537.411 361.23 537.504 361.6 537.74 361.938C537.979 362.263 538.293 362.45 538.682 362.501ZM546.418 358.473C545.978 358.416 545.585 358.249 545.238 357.974C544.903 357.7 544.647 357.36 544.47 356.954C544.306 356.549 544.253 356.127 544.31 355.687L544.485 354.35C544.544 353.898 544.705 353.497 544.968 353.148C545.243 352.801 545.577 352.544 545.969 352.378C546.375 352.202 546.798 352.142 547.238 352.199C547.69 352.259 548.084 352.425 548.418 352.699C548.755 352.96 549.005 353.293 549.169 353.697C549.333 354.102 549.386 354.53 549.327 354.983L549.152 356.32C549.093 356.772 548.926 357.172 548.65 357.519C548.389 357.856 548.062 358.113 547.668 358.292C547.274 358.47 546.857 358.531 546.418 358.473ZM544.143 365.323C544.08 365.315 544.065 365.281 544.099 365.221L553.308 353.261C553.352 353.216 553.393 353.196 553.43 353.201L555.616 353.486C555.679 353.494 555.694 353.522 555.662 353.569L546.472 365.532C546.439 365.591 546.397 365.618 546.347 365.611L544.143 365.323ZM546.58 356.942C546.831 356.975 547.05 356.914 547.236 356.76C547.424 356.593 547.535 356.377 547.569 356.113L547.739 354.813C547.772 354.562 547.718 354.338 547.578 354.141C547.44 353.931 547.245 353.81 546.993 353.777C546.742 353.744 546.516 353.81 546.316 353.976C546.13 354.13 546.02 354.333 545.987 354.584L545.817 355.884C545.784 356.136 545.844 356.367 545.995 356.578C546.146 356.79 546.341 356.911 546.58 356.942ZM552.728 366.637C552.288 366.579 551.895 366.413 551.548 366.138C551.213 365.864 550.957 365.524 550.78 365.118C550.616 364.713 550.563 364.291 550.62 363.851L550.795 362.513C550.854 362.061 551.015 361.661 551.278 361.312C551.553 360.965 551.887 360.708 552.279 360.542C552.685 360.365 553.108 360.306 553.548 360.363C554 360.422 554.394 360.589 554.728 360.862C555.065 361.123 555.315 361.456 555.479 361.861C555.643 362.266 555.696 362.694 555.637 363.146L555.462 364.484C555.403 364.936 555.236 365.336 554.96 365.683C554.699 366.019 554.372 366.277 553.978 366.455C553.584 366.634 553.168 366.694 552.728 366.637ZM552.909 365.108C553.16 365.141 553.378 365.08 553.565 364.926C553.753 364.759 553.864 364.543 553.898 364.28L554.068 362.98C554.101 362.728 554.047 362.504 553.907 362.307C553.768 362.097 553.573 361.976 553.322 361.943C553.071 361.91 552.845 361.977 552.645 362.142C552.459 362.297 552.349 362.499 552.316 362.751L552.146 364.051C552.113 364.302 552.173 364.533 552.324 364.744C552.475 364.956 552.67 365.077 552.909 365.108Z" fill="#D8B8FF"/>
<path d="M190.319 126.537C190.286 126.483 190.297 126.439 190.351 126.407L201.547 119.696C201.59 119.669 201.625 119.678 201.651 119.721L203.503 122.754C203.874 123.344 204.06 123.971 204.062 124.636C204.07 125.311 203.913 125.946 203.591 126.54C203.279 127.127 202.826 127.601 202.229 127.961L197.56 130.778C196.931 131.157 196.265 131.352 195.561 131.363C194.868 131.367 194.216 131.205 193.605 130.879C192.993 130.552 192.489 130.073 192.092 129.439L190.319 126.537ZM193.468 127.233L194.077 128.242C194.319 128.643 194.663 128.894 195.109 128.995C195.561 129.107 195.982 129.045 196.372 128.809L201.058 125.982C201.405 125.773 201.624 125.463 201.717 125.052C201.826 124.646 201.771 124.272 201.551 123.932L200.848 122.803L193.468 127.233ZM194.939 134.194C194.913 134.151 194.927 134.113 194.981 134.08L206.167 127.353C206.211 127.326 206.245 127.335 206.271 127.378L209.422 132.6C209.449 132.644 209.435 132.682 209.38 132.715L207.558 133.814C207.515 133.84 207.48 133.832 207.454 133.788L205.442 130.453L202.904 131.985L204.916 135.319C204.942 135.363 204.934 135.398 204.89 135.424L203.062 136.549C203.019 136.575 202.984 136.567 202.958 136.523L200.935 133.172L198.089 134.89L200.111 138.241C200.137 138.285 200.123 138.323 200.069 138.355L198.214 139.474C198.171 139.501 198.136 139.492 198.11 139.449L194.939 134.194ZM200.121 142.782C200.095 142.739 200.106 142.695 200.153 142.652L209.975 133.663C210.012 133.626 210.047 133.635 210.079 133.689L211.189 135.527C211.215 135.571 211.209 135.611 211.173 135.648L204.527 141.478L212.763 138.283C212.813 138.268 212.851 138.282 212.877 138.325L213.976 140.147C214.009 140.202 214 140.236 213.95 140.252L201.439 144.783C201.379 144.805 201.335 144.794 201.309 144.751L200.121 142.782ZM203.308 148.063C203.282 148.02 203.296 147.982 203.35 147.949L214.536 141.222C214.579 141.196 214.614 141.204 214.64 141.247L217.791 146.469C217.817 146.513 217.803 146.551 217.749 146.584L215.927 147.683C215.883 147.709 215.849 147.701 215.823 147.657L213.81 144.322L211.272 145.854L213.285 149.189C213.311 149.232 213.302 149.267 213.259 149.293L211.43 150.418C211.387 150.445 211.352 150.436 211.326 150.393L209.304 147.041L206.457 148.759L208.479 152.11C208.505 152.154 208.491 152.192 208.437 152.224L206.583 153.344C206.539 153.37 206.504 153.361 206.478 153.318L203.308 148.063ZM207.43 154.894C207.403 154.851 207.417 154.813 207.472 154.78L218.641 148.063C218.696 148.03 218.739 148.041 218.772 148.095L219.861 149.901C219.894 149.955 219.883 149.998 219.829 150.031L210.579 155.59L212.601 158.942C212.634 158.996 212.623 159.039 212.569 159.072L210.731 160.181C210.676 160.214 210.633 160.203 210.6 160.149L207.43 154.894ZM212.811 164.181C212.458 163.595 212.28 162.97 212.278 162.305C212.294 161.645 212.458 161.021 212.769 160.433C213.091 159.84 213.551 159.363 214.147 159.003L219.314 155.907C219.91 155.547 220.538 155.361 221.196 155.349C221.861 155.347 222.487 155.502 223.074 155.813C223.661 156.125 224.128 156.568 224.475 157.142C224.828 157.728 225.003 158.348 224.998 159.002C224.993 159.656 224.832 160.271 224.514 160.847C224.202 161.435 223.748 161.908 223.152 162.268L218.005 165.396C217.408 165.756 216.772 165.94 216.097 165.948C215.438 165.961 214.81 165.815 214.212 165.51C213.631 165.209 213.164 164.766 212.811 164.181ZM214.779 162.993C214.976 163.318 215.276 163.522 215.68 163.603C216.102 163.689 216.481 163.63 216.817 163.428L221.964 160.3C222.322 160.084 222.557 159.787 222.669 159.408C222.781 159.03 222.732 158.667 222.523 158.32C222.32 157.984 222.022 157.772 221.628 157.684C221.246 157.589 220.87 157.653 220.502 157.876L215.345 160.987C214.987 161.203 214.75 161.509 214.633 161.905C214.528 162.294 214.576 162.657 214.779 162.993ZM215.693 168.589C215.66 168.535 215.671 168.491 215.725 168.459L226.921 161.748C226.964 161.721 226.999 161.73 227.025 161.773L228.91 164.897C229.512 165.895 229.683 166.864 229.422 167.805C229.168 168.758 228.521 169.548 227.48 170.176C226.71 170.641 225.951 170.891 225.204 170.928C224.457 170.964 223.784 170.83 223.186 170.526C222.588 170.221 222.115 169.781 221.768 169.206L221.022 167.97L216.923 170.443C216.869 170.476 216.825 170.465 216.792 170.411L215.693 168.589ZM222.991 166.782L223.737 168.018C223.946 168.365 224.289 168.566 224.765 168.619C225.258 168.676 225.77 168.544 226.302 168.224C226.725 167.969 227.003 167.645 227.137 167.254C227.27 166.863 227.216 166.466 226.974 166.065L226.212 164.838L222.991 166.782ZM220.169 176.008C220.143 175.964 220.157 175.926 220.211 175.894L231.407 169.183C231.451 169.156 231.485 169.165 231.511 169.208L232.709 171.193C232.735 171.236 232.736 171.288 232.713 171.346L231.459 174.122L234.499 174.307C234.562 174.313 234.607 174.338 234.633 174.382L235.84 176.383C235.867 176.426 235.858 176.461 235.815 176.487L224.658 183.263C224.604 183.296 224.564 183.29 224.537 183.247L223.428 181.409C223.402 181.365 223.416 181.327 223.47 181.295L231.757 176.272L228.254 176.056L229.706 172.872L221.399 177.862C221.345 177.895 221.305 177.889 221.279 177.846L220.169 176.008ZM225.442 184.745C225.415 184.702 225.429 184.664 225.484 184.631L236.67 177.904C236.713 177.878 236.748 177.886 236.774 177.93L239.925 183.152C239.951 183.195 239.937 183.233 239.883 183.266L238.061 184.365C238.017 184.392 237.983 184.383 237.956 184.34L235.944 181.005L233.406 182.536L235.419 185.871C235.445 185.914 235.436 185.949 235.393 185.975L233.564 187.101C233.521 187.127 233.486 187.118 233.46 187.075L231.438 183.724L228.591 185.441L230.613 188.793C230.639 188.836 230.625 188.874 230.571 188.907L228.717 190.026C228.673 190.052 228.638 190.043 228.612 190L225.442 184.745ZM229.613 191.658C229.56 191.571 229.572 191.505 229.648 191.459L240.717 184.758C240.803 184.706 240.873 184.723 240.925 184.81L241.809 186.274L237.058 192.891L243.288 189.02C243.375 188.968 243.448 188.991 243.507 189.088L244.479 190.699C244.518 190.764 244.494 190.823 244.407 190.875L233.323 197.586C233.257 197.625 233.209 197.618 233.176 197.563L232.312 196.132L236.6 189.705L230.813 193.353C230.726 193.405 230.653 193.382 230.594 193.285L229.613 191.658ZM235.059 200.685C235.033 200.641 235.047 200.603 235.101 200.57L244.374 194.975L243.098 192.861C243.065 192.806 243.076 192.763 243.13 192.73L244.962 191.647C245.005 191.621 245.04 191.629 245.066 191.673L248.796 197.855C248.829 197.909 248.824 197.949 248.78 197.975L246.958 199.075C246.904 199.107 246.864 199.102 246.838 199.059L245.552 196.928L236.289 202.539C236.235 202.572 236.195 202.566 236.168 202.523L235.059 200.685ZM241.07 211.051C240.723 210.476 240.549 209.857 240.547 209.192C240.563 208.531 240.732 207.904 241.054 207.31C241.383 206.727 241.846 206.256 242.442 205.896L243.174 205.454C243.228 205.422 243.269 205.427 243.295 205.47L244.394 207.292C244.427 207.346 244.416 207.39 244.362 207.423L243.63 207.864C243.272 208.08 243.032 208.381 242.909 208.766C242.797 209.144 242.845 209.506 243.055 209.854C243.284 210.233 243.594 210.453 243.985 210.513C244.387 210.566 244.756 210.491 245.093 210.288L245.532 210.023C245.868 209.82 246.106 209.529 246.246 209.148C246.393 208.779 246.368 208.431 246.172 208.106L245.789 207.471C245.757 207.417 245.767 207.374 245.822 207.341L247.653 206.258C247.697 206.232 247.732 206.24 247.758 206.284L248.141 206.918C248.317 207.211 248.588 207.402 248.953 207.493C249.319 207.583 249.685 207.517 250.054 207.294L250.282 207.157C250.629 206.948 250.85 206.652 250.945 206.269C251.057 205.891 251.008 205.528 250.798 205.181C250.596 204.845 250.297 204.633 249.904 204.545C249.528 204.461 249.166 204.524 248.819 204.733L248.039 205.204C247.984 205.237 247.944 205.232 247.918 205.188L246.819 203.366C246.792 203.323 246.806 203.285 246.861 203.252L247.723 202.732C248.319 202.372 248.939 202.198 249.582 202.209C250.232 202.231 250.836 202.399 251.395 202.713C251.972 203.031 252.423 203.461 252.751 204.003C253.104 204.589 253.278 205.209 253.273 205.862C253.286 206.521 253.139 207.135 252.831 207.705C252.524 208.275 252.084 208.733 251.509 209.08L251.248 209.237C250.771 209.525 250.31 209.692 249.865 209.739C249.426 209.796 248.964 209.779 248.48 209.687C248.325 210.165 248.101 210.603 247.809 211.002C247.527 211.393 247.18 211.714 246.768 211.962L246.28 212.257C245.673 212.623 245.031 212.811 244.356 212.819C243.687 212.838 243.059 212.692 242.471 212.38C241.891 212.08 241.424 211.637 241.07 211.051ZM245.828 218.531C245.801 218.488 245.815 218.45 245.87 218.417L247.773 217.268L245.653 213.754C245.627 213.711 245.641 213.673 245.695 213.64L247.484 212.561L257.026 211.641C257.083 211.636 257.124 211.656 257.15 211.699L258.259 213.537C258.279 213.57 258.267 213.599 258.224 213.625L250.897 218.069L251.584 219.207C251.616 219.262 251.606 219.305 251.552 219.338L249.778 220.408C249.724 220.44 249.684 220.435 249.658 220.392L248.961 219.237L247.057 220.385C247.003 220.418 246.963 220.413 246.937 220.369L245.828 218.531ZM248.708 214.441L249.709 216.1L253.255 213.96L248.708 214.441ZM248.352 222.715C248.326 222.671 248.334 222.636 248.378 222.61L250.216 221.501C250.259 221.475 250.294 221.483 250.32 221.527L251.43 223.365C251.456 223.409 251.447 223.443 251.404 223.469L249.566 224.579C249.522 224.605 249.487 224.596 249.461 224.553L248.352 222.715ZM251.901 228.964C251.554 228.389 251.38 227.77 251.378 227.105C251.377 226.44 251.526 225.817 251.827 225.237C252.138 224.649 252.576 224.185 253.14 223.845L253.628 223.551C253.671 223.525 253.709 223.539 253.742 223.593L254.851 225.431C254.877 225.474 254.868 225.509 254.825 225.535L254.451 225.761C254.082 225.984 253.845 226.289 253.74 226.679C253.634 227.068 253.683 227.43 253.886 227.767C254.089 228.103 254.383 228.309 254.77 228.387C255.175 228.468 255.556 228.401 255.914 228.185L257.02 227.518C257.356 227.315 257.563 227.02 257.64 226.633C257.724 226.257 257.658 225.89 257.442 225.532C257.16 225.066 256.744 224.792 256.192 224.711L256.123 224.708L255.203 222.889C255.17 222.834 255.181 222.791 255.235 222.758L259.81 220.264L261.643 219.291C261.686 219.265 261.721 219.274 261.747 219.317L265.045 224.783C265.071 224.827 265.063 224.861 265.019 224.888L263.246 225.958C263.192 225.99 263.152 225.985 263.125 225.942L260.829 222.135L258.534 223.408C258.678 223.499 258.834 223.634 259.001 223.814C259.176 224.005 259.315 224.187 259.42 224.361C259.773 224.946 259.951 225.571 259.952 226.236C259.971 226.905 259.831 227.53 259.53 228.111C259.23 228.692 258.792 229.155 258.217 229.502L257.111 230.17C256.515 230.53 255.879 230.714 255.203 230.722C254.534 230.741 253.9 230.598 253.302 230.293C252.721 229.993 252.254 229.55 251.901 228.964ZM261.652 231.039C261.423 230.659 261.308 230.248 261.307 229.804C261.312 229.372 261.419 228.96 261.626 228.569C261.84 228.188 262.137 227.883 262.517 227.654L263.672 226.957C264.062 226.722 264.476 226.598 264.912 226.586C265.355 226.585 265.764 226.686 266.138 226.889C266.53 227.097 266.84 227.39 267.069 227.77C267.305 228.16 267.42 228.572 267.414 229.004C267.42 229.43 267.315 229.833 267.101 230.214C266.887 230.594 266.585 230.902 266.194 231.138L265.039 231.835C264.649 232.071 264.232 232.189 263.789 232.19C263.363 232.195 262.958 232.1 262.573 231.903C262.188 231.706 261.881 231.418 261.652 231.039ZM254.877 233.529C254.844 233.474 254.862 233.442 254.929 233.431L270.022 233.178C270.085 233.184 270.126 233.204 270.146 233.236L271.284 235.123C271.317 235.178 271.305 235.207 271.249 235.212L256.166 235.48C256.099 235.492 256.052 235.475 256.026 235.432L254.877 233.529ZM262.95 230.211C263.081 230.428 263.265 230.561 263.502 230.61C263.749 230.653 263.987 230.606 264.215 230.468L265.337 229.791C265.554 229.66 265.696 229.478 265.763 229.246C265.84 229.007 265.814 228.779 265.683 228.562C265.552 228.345 265.359 228.21 265.105 228.156C264.868 228.107 264.641 228.147 264.424 228.278L263.302 228.955C263.085 229.086 262.941 229.277 262.87 229.527C262.799 229.777 262.826 230.005 262.95 230.211ZM259.2 241.061C258.971 240.682 258.856 240.27 258.855 239.827C258.861 239.395 258.967 238.983 259.175 238.591C259.389 238.211 259.686 237.906 260.065 237.677L261.22 236.98C261.611 236.744 262.024 236.62 262.461 236.609C262.904 236.607 263.313 236.708 263.687 236.912C264.078 237.119 264.389 237.413 264.618 237.792C264.853 238.183 264.968 238.594 264.963 239.027C264.968 239.452 264.864 239.856 264.65 240.236C264.436 240.617 264.133 240.925 263.743 241.161L262.588 241.858C262.197 242.093 261.781 242.212 261.338 242.213C260.912 242.218 260.506 242.122 260.121 241.926C259.736 241.729 259.429 241.441 259.2 241.061ZM260.508 240.25C260.639 240.467 260.823 240.6 261.06 240.649C261.308 240.692 261.545 240.645 261.773 240.507L262.896 239.83C263.113 239.699 263.254 239.517 263.321 239.285C263.399 239.046 263.372 238.818 263.241 238.601C263.11 238.384 262.918 238.249 262.663 238.195C262.427 238.146 262.2 238.186 261.983 238.317L260.86 238.994C260.643 239.125 260.499 239.316 260.428 239.566C260.357 239.816 260.384 240.044 260.508 240.25Z" fill="#D8B8FF"/>
<path d="M190.584 526.07C190.555 526.112 190.514 526.114 190.462 526.078L179.788 518.566C179.746 518.537 179.74 518.502 179.769 518.46L181.097 516.561C181.126 516.519 181.173 516.497 181.236 516.495L184.282 516.516L183.218 513.662C183.198 513.601 183.203 513.55 183.232 513.509L184.571 511.594C184.6 511.552 184.635 511.546 184.677 511.575L195.395 519.025C195.447 519.061 195.459 519.1 195.43 519.142L194.199 520.901C194.17 520.943 194.13 520.945 194.078 520.909L186.126 515.371L187.349 518.661L183.85 518.625L191.78 524.194C191.832 524.23 191.843 524.269 191.814 524.311L190.584 526.07ZM195.941 518.245L186.595 508.833C186.56 508.794 186.558 508.753 186.587 508.712L188.166 506.454C188.195 506.413 188.234 506.401 188.282 506.42L200.275 512.048C200.334 512.074 200.345 512.113 200.309 512.165L199.1 513.893C199.071 513.934 199.027 513.942 198.968 513.916L197.712 513.293L196.231 515.41L197.248 516.376C197.292 516.423 197.3 516.467 197.271 516.509L196.062 518.237C196.033 518.278 195.993 518.281 195.941 518.245ZM194.783 513.934L195.828 512.439L191.006 510.017L190.365 509.708L190.897 510.173L194.783 513.934ZM201.08 511.063C201.051 511.104 201.01 511.107 200.958 511.071L190.283 503.559C190.242 503.53 190.236 503.494 190.265 503.453L192.464 500.308C192.856 499.747 193.356 499.331 193.963 499.06C194.567 498.772 195.2 498.65 195.863 498.697C196.516 498.736 197.133 498.959 197.714 499.365C198.098 499.634 198.406 499.934 198.638 500.266C198.859 500.591 199.024 500.907 199.133 501.215C199.232 501.516 199.289 501.765 199.306 501.963C200.321 501.838 201.249 502.069 202.089 502.657L205.292 504.874C205.344 504.91 205.352 504.954 205.316 505.006L204.085 506.766C204.056 506.807 204.026 506.817 203.995 506.795L200.772 504.541C200.398 504.28 199.982 504.19 199.523 504.271C199.062 504.334 198.696 504.558 198.428 504.942L197.709 505.97L202.276 509.187C202.328 509.223 202.339 509.262 202.31 509.304L201.08 511.063ZM195.841 504.663L196.777 503.324C197.002 503.002 197.082 502.633 197.018 502.217C196.953 501.801 196.75 501.473 196.407 501.234C196.075 501.001 195.703 500.926 195.29 501.009C194.884 501.08 194.565 501.282 194.333 501.614L193.396 502.953L195.841 504.663ZM206.333 503.552C206.304 503.593 206.263 503.596 206.211 503.559L195.552 496.058C195.5 496.022 195.489 495.983 195.518 495.942L196.737 494.198C196.767 494.156 196.807 494.154 196.859 494.19L200.549 496.771L198.553 491.735C198.533 491.674 198.538 491.623 198.567 491.582L199.819 489.791C199.848 489.75 199.876 489.754 199.903 489.804L202.317 495.503L210.844 496.969C210.9 496.977 210.903 497.017 210.852 497.09L209.523 498.99C209.487 499.042 209.445 499.058 209.396 499.039L203.348 497.94L203.823 499.084L207.529 501.675C207.581 501.712 207.592 501.751 207.563 501.792L206.333 503.552ZM211.437 496.253C211.408 496.295 211.368 496.297 211.316 496.261L200.63 488.765C200.589 488.735 200.582 488.7 200.611 488.659L204.107 483.661C204.136 483.619 204.176 483.617 204.228 483.653L205.972 484.872C206.014 484.902 206.02 484.937 205.991 484.978L203.758 488.17L206.187 489.869L208.42 486.677C208.449 486.636 208.484 486.629 208.526 486.658L210.296 487.873C210.337 487.902 210.344 487.938 210.315 487.979L208.071 491.187L210.796 493.092L213.039 489.885C213.068 489.843 213.109 489.841 213.161 489.877L214.936 491.118C214.977 491.147 214.983 491.183 214.954 491.224L211.437 496.253ZM217.055 488.22C217.026 488.262 216.986 488.264 216.934 488.228L208.059 482.021L206.643 484.045C206.607 484.097 206.563 484.105 206.511 484.069L204.778 482.834C204.737 482.805 204.73 482.769 204.759 482.728L208.897 476.811C208.934 476.759 208.972 476.748 209.014 476.777L210.758 477.996C210.81 478.033 210.821 478.072 210.792 478.113L209.366 480.153L218.251 486.344C218.303 486.38 218.315 486.419 218.286 486.461L217.055 488.22ZM220.381 483.465C220.344 483.517 220.3 483.525 220.248 483.489L209.563 475.992C209.521 475.963 209.515 475.928 209.544 475.886L210.764 474.143C210.793 474.101 210.828 474.095 210.869 474.124L221.577 481.589C221.629 481.626 221.64 481.664 221.611 481.706L220.381 483.465ZM222.711 480.134C222.652 480.217 222.587 480.233 222.514 480.182L211.9 472.782C211.817 472.724 211.805 472.654 211.863 472.571L212.843 471.169L220.818 472.828L214.753 468.703C214.67 468.645 214.661 468.569 214.727 468.476L215.805 466.934C215.848 466.872 215.912 466.87 215.995 466.928L226.624 474.339C226.687 474.382 226.7 474.43 226.663 474.482L225.705 475.852L218.091 474.539L223.773 478.35C223.856 478.408 223.865 478.484 223.799 478.577L222.711 480.134ZM229.812 470.311C229.42 470.872 228.924 471.282 228.325 471.543C227.725 471.804 227.094 471.911 226.43 471.865C225.764 471.801 225.14 471.565 224.559 471.159L219.623 467.707C219.063 467.315 218.644 466.821 218.365 466.224C218.084 465.61 217.963 464.976 218.002 464.324C218.048 463.66 218.264 463.054 218.648 462.504C219.048 461.933 219.547 461.517 220.147 461.256C220.743 460.978 221.37 460.867 222.025 460.924C222.681 460.981 223.3 461.212 223.881 461.619L224.597 462.12C224.639 462.149 224.642 462.189 224.605 462.241L223.386 463.985C223.357 464.027 223.321 464.033 223.28 464.004L222.688 463.59C222.294 463.314 221.887 463.2 221.468 463.247C221.056 463.283 220.734 463.467 220.501 463.8C220.291 464.101 220.227 464.458 220.309 464.871C220.398 465.273 220.609 465.591 220.941 465.823L225.877 469.275C226.219 469.514 226.595 469.607 227.004 469.553C227.402 469.492 227.71 469.305 227.928 468.994C228.16 468.662 228.233 468.303 228.147 467.918C228.068 467.523 227.852 467.202 227.499 466.955L226.736 466.421L225.974 467.511C225.938 467.563 225.894 467.571 225.842 467.535L224.098 466.315C224.046 466.279 224.038 466.235 224.075 466.183L226.111 463.271C226.14 463.23 226.18 463.227 226.232 463.263L228.817 465.071C229.398 465.477 229.83 465.988 230.111 466.602C230.389 467.199 230.509 467.823 230.47 468.476C230.431 469.129 230.211 469.74 229.812 470.311ZM235.646 461.638C235.61 461.69 235.566 461.698 235.514 461.661L233.755 460.431C233.734 460.416 233.72 460.391 233.714 460.356L231.126 452.819C231.083 452.681 231.003 452.54 230.887 452.397C230.768 452.236 230.651 452.116 230.537 452.036C230.236 451.826 229.885 451.742 229.483 451.786C229.071 451.822 228.749 452.007 228.517 452.339C228.292 452.661 228.224 453.023 228.313 453.426C228.399 453.81 228.629 454.134 229.003 454.395L229.766 454.929C229.818 454.965 229.826 455.009 229.789 455.061L228.57 456.805C228.541 456.846 228.5 456.849 228.448 456.812L227.685 456.279C227.104 455.872 226.673 455.362 226.391 454.748C226.117 454.123 226 453.485 226.039 452.832C226.085 452.169 226.293 451.573 226.664 451.043C227.056 450.483 227.557 450.076 228.167 449.822C228.767 449.561 229.394 449.46 230.05 449.516C230.713 449.563 231.315 449.775 231.854 450.152C232.197 450.392 232.501 450.697 232.767 451.069C233.04 451.43 233.239 451.808 233.364 452.205L235.358 458.005L237.808 454.502C237.837 454.46 237.873 454.454 237.914 454.483L239.674 455.714C239.726 455.75 239.737 455.789 239.708 455.83L235.646 461.638ZM240.432 454.796C240.395 454.847 240.351 454.855 240.299 454.819L238.54 453.589C238.519 453.574 238.506 453.549 238.499 453.514L235.911 445.977C235.868 445.839 235.789 445.698 235.673 445.555C235.553 445.394 235.436 445.274 235.322 445.194C235.021 444.983 234.67 444.9 234.268 444.944C233.856 444.98 233.534 445.165 233.302 445.497C233.077 445.818 233.009 446.181 233.098 446.583C233.185 446.968 233.415 447.291 233.788 447.553L234.551 448.086C234.603 448.123 234.611 448.167 234.575 448.219L233.355 449.962C233.326 450.004 233.286 450.007 233.234 449.97L232.471 449.437C231.889 449.03 231.458 448.52 231.177 447.906C230.902 447.281 230.785 446.642 230.824 445.99C230.87 445.326 231.079 444.73 231.449 444.201C231.841 443.64 232.342 443.233 232.952 442.98C233.552 442.719 234.18 442.617 234.835 442.674C235.499 442.72 236.1 442.932 236.64 443.31C236.982 443.549 237.286 443.855 237.552 444.226C237.825 444.587 238.024 444.966 238.149 445.362L240.144 451.163L242.594 447.66C242.623 447.618 242.658 447.612 242.7 447.641L244.459 448.871C244.511 448.908 244.522 448.946 244.493 448.988L240.432 454.796ZM245.413 447.673C245.384 447.715 245.349 447.721 245.307 447.692L243.548 446.461C243.506 446.432 243.5 446.397 243.529 446.355L244.759 444.596C244.788 444.555 244.824 444.548 244.865 444.577L246.625 445.808C246.666 445.837 246.672 445.872 246.643 445.914L245.413 447.673ZM247.818 444.234C247.789 444.276 247.756 444.268 247.718 444.211L241.04 434.764L238.067 439.015C238.038 439.056 238.003 439.062 237.961 439.033L236.264 437.847C236.212 437.81 236.201 437.771 236.23 437.73L240.444 431.704C240.473 431.663 240.513 431.66 240.565 431.696L242.309 432.916L249.156 442.156C249.193 442.213 249.197 442.262 249.168 442.304L247.818 444.234ZM247.405 432.46C247.151 432.823 246.821 433.095 246.417 433.276C246.019 433.446 245.599 433.516 245.157 433.485C244.723 433.443 244.324 433.296 243.96 433.042L242.855 432.269C242.481 432.007 242.2 431.679 242.012 431.285C241.832 430.881 241.758 430.466 241.792 430.042C241.823 429.599 241.966 429.197 242.22 428.833C242.481 428.46 242.811 428.188 243.208 428.017C243.595 427.84 244.006 427.772 244.441 427.813C244.875 427.854 245.28 428.006 245.653 428.267L246.759 429.04C247.132 429.302 247.41 429.634 247.59 430.039C247.768 430.426 247.845 430.835 247.821 431.267C247.798 431.699 247.659 432.096 247.405 432.46ZM252.428 437.642C252.392 437.694 252.355 437.692 252.318 437.635L245.966 423.941C245.946 423.881 245.947 423.835 245.969 423.804L247.232 421.998C247.268 421.946 247.3 421.945 247.327 421.995L253.69 435.673C253.727 435.73 253.731 435.779 253.702 435.821L252.428 437.642ZM246.122 431.609C246.267 431.401 246.314 431.179 246.263 430.942C246.202 430.699 246.062 430.5 245.844 430.348L244.77 429.597C244.562 429.451 244.338 429.396 244.099 429.429C243.849 429.455 243.651 429.572 243.506 429.779C243.361 429.987 243.315 430.218 243.369 430.472C243.42 430.709 243.549 430.899 243.757 431.045L244.831 431.796C245.039 431.941 245.271 431.996 245.529 431.959C245.786 431.923 245.984 431.806 246.122 431.609ZM257.56 430.636C257.306 430.999 256.977 431.271 256.572 431.452C256.175 431.622 255.755 431.692 255.313 431.661C254.878 431.62 254.479 431.472 254.116 431.218L253.01 430.445C252.637 430.183 252.356 429.856 252.168 429.461C251.987 429.057 251.914 428.642 251.948 428.218C251.979 427.776 252.121 427.373 252.375 427.01C252.637 426.636 252.966 426.364 253.364 426.194C253.751 426.016 254.161 425.948 254.596 425.989C255.031 426.03 255.435 426.182 255.809 426.443L256.914 427.216C257.288 427.478 257.565 427.811 257.746 428.215C257.924 428.602 258.001 429.012 257.977 429.443C257.953 429.875 257.814 430.272 257.56 430.636ZM256.288 429.769C256.433 429.562 256.481 429.34 256.43 429.103C256.368 428.859 256.229 428.661 256.011 428.509L254.936 427.757C254.729 427.612 254.505 427.556 254.265 427.589C254.015 427.615 253.818 427.732 253.672 427.94C253.527 428.148 253.482 428.378 253.536 428.633C253.587 428.869 253.716 429.06 253.924 429.205L254.998 429.957C255.206 430.102 255.438 430.156 255.695 430.12C255.953 430.083 256.15 429.967 256.288 429.769Z" fill="#D8B8FF"/>
<defs>
<linearGradient id="paint0_linear_0_1" x1="332.805" y1="0.803711" x2="332.805" y2="664.804" gradientUnits="userSpaceOnUse">
<stop stop-color="#86C5FF" stop-opacity="0.66"/>
<stop offset="1" stop-color="white" stop-opacity="0"/>
</linearGradient>
<linearGradient id="paint1_linear_0_1" x1="649.547" y1="233.312" x2="16.0635" y2="432.296" gradientUnits="userSpaceOnUse">
<stop stop-color="#86C5FF" stop-opacity="0.66"/>
<stop offset="1" stop-color="white" stop-opacity="0"/>
</linearGradient>
<linearGradient id="paint2_linear_0_1" x1="649.547" y1="233.312" x2="16.0635" y2="432.296" gradientUnits="userSpaceOnUse">
<stop stop-color="#86C5FF" stop-opacity="0.66"/>
<stop offset="1" stop-color="white" stop-opacity="0"/>
</linearGradient>
</defs>
</svg>
