<svg width="819" height="834" viewBox="0 0 819 834" fill="none" xmlns="http://www.w3.org/2000/svg">
<mask id="path-1-inside-1_1547_2" fill="white">
<path d="M416.805 748.804C490.041 748.804 561.222 724.588 619.265 679.927C677.308 635.266 718.954 572.666 737.72 501.875C756.486 431.084 751.319 356.074 723.021 288.526C694.724 220.977 644.886 164.68 581.267 128.401L416.805 416.804V748.804Z"/>
</mask>
<path d="M416.805 748.804C490.041 748.804 561.222 724.588 619.265 679.927C677.308 635.266 718.954 572.666 737.72 501.875C756.486 431.084 751.319 356.074 723.021 288.526C694.724 220.977 644.886 164.68 581.267 128.401L416.805 416.804V748.804Z" fill="url(#paint0_linear_1547_2)" fill-opacity="0.2" stroke="#D8B8FF" stroke-width="2" mask="url(#path-1-inside-1_1547_2)"/>
<mask id="path-2-inside-2_1547_2" fill="white">
<path d="M85.6583 440.588C81.3361 380.411 93.4937 320.193 120.824 266.407C148.155 212.62 189.626 167.297 240.78 135.31C291.935 103.322 350.839 85.8777 411.162 84.8522C471.486 83.8267 530.949 99.2585 583.16 129.489L416.805 416.804L85.6583 440.588Z"/>
</mask>
<path d="M85.6583 440.588C81.3361 380.411 93.4937 320.193 120.824 266.407C148.155 212.62 189.626 167.297 240.78 135.31C291.935 103.322 350.839 85.8777 411.162 84.8522C471.486 83.8267 530.949 99.2585 583.16 129.489L416.805 416.804L85.6583 440.588Z" fill="url(#paint1_linear_1547_2)" fill-opacity="0.2" stroke="#D8B8FF" stroke-width="2" mask="url(#path-2-inside-2_1547_2)"/>
<mask id="path-3-inside-3_1547_2" fill="white">
<path d="M417.331 748.804C333.2 748.937 252.156 717.125 190.58 659.798C129.003 602.471 91.4876 523.905 85.615 439.979L416.805 416.804L417.331 748.804Z"/>
</mask>
<path d="M417.331 748.804C333.2 748.937 252.156 717.125 190.58 659.798C129.003 602.471 91.4876 523.905 85.615 439.979L416.805 416.804L417.331 748.804Z" fill="url(#paint2_linear_1547_2)" fill-opacity="0.2" stroke="#D8B8FF" stroke-width="2" mask="url(#path-3-inside-3_1547_2)"/>
<path d="M539.156 437.691C539.106 437.684 539.085 437.649 539.093 437.587L540.802 424.665C540.81 424.602 540.845 424.575 540.908 424.583L542.999 424.857C543.062 424.865 543.09 424.9 543.081 424.963L541.664 435.662L545.545 436.169C545.607 436.177 545.635 436.213 545.626 436.275L545.348 438.404C545.34 438.467 545.304 438.494 545.242 438.486L539.156 437.691ZM546.663 438.672C546.601 438.664 546.573 438.628 546.581 438.565L548.292 425.625C548.299 425.575 548.327 425.553 548.377 425.56L550.487 425.835C550.538 425.842 550.56 425.87 550.553 425.921L548.88 438.866C548.872 438.929 548.842 438.957 548.792 438.95L546.663 438.672ZM556.565 441.193L555.438 439.704C554.959 439.846 554.475 439.885 553.985 439.821C553.32 439.734 552.727 439.484 552.206 439.071C551.685 438.658 551.293 438.14 551.029 437.518C550.765 436.896 550.679 436.24 550.769 435.549L551.569 429.579C551.656 428.913 551.899 428.319 552.3 427.797C552.702 427.262 553.201 426.861 553.798 426.594C554.409 426.316 555.06 426.222 555.751 426.313C556.417 426.4 557.004 426.649 557.512 427.06C558.035 427.461 558.422 427.965 558.675 428.573C558.94 429.182 559.027 429.839 558.935 430.542L558.173 436.517C558.125 436.881 558.029 437.226 557.884 437.552C557.74 437.878 557.567 438.175 557.366 438.442L558.379 439.782C558.422 439.839 558.423 439.883 558.38 439.916L556.697 441.21C556.642 441.241 556.598 441.235 556.565 441.193ZM554.283 437.541C554.711 437.597 555.07 437.484 555.362 437.203C555.669 436.911 555.846 436.583 555.893 436.219L556.655 430.244C556.708 429.842 556.621 429.479 556.395 429.156C556.171 428.82 555.858 428.626 555.456 428.573C555.029 428.518 554.664 428.623 554.36 428.89C554.07 429.159 553.899 429.488 553.848 429.877L553.068 435.849C553.008 436.301 553.105 436.685 553.358 436.999C553.623 437.314 553.932 437.495 554.283 437.541ZM562.853 440.98C562.187 440.893 561.594 440.643 561.073 440.23C560.554 439.804 560.163 439.28 559.899 438.658C559.648 438.038 559.568 437.382 559.658 436.692L560.927 427.277C560.933 427.226 560.962 427.205 561.012 427.211L563.122 427.487C563.172 427.494 563.194 427.522 563.188 427.572L561.956 436.992C561.9 437.419 561.985 437.801 562.209 438.136C562.448 438.461 562.762 438.649 563.151 438.7C563.553 438.753 563.905 438.652 564.206 438.397C564.522 438.132 564.708 437.786 564.763 437.359L565.995 427.939C566.001 427.889 566.03 427.867 566.08 427.874L568.19 428.149C568.24 428.156 568.262 428.184 568.256 428.235L567.062 437.659C566.97 438.363 566.717 438.981 566.302 439.515C565.9 440.05 565.394 440.45 564.785 440.715C564.188 440.982 563.544 441.07 562.853 440.98ZM568.171 441.483C568.108 441.475 568.081 441.44 568.089 441.377L569.8 428.436C569.806 428.386 569.835 428.364 569.885 428.371L571.995 428.647C572.045 428.653 572.067 428.682 572.06 428.732L570.387 441.677C570.379 441.74 570.35 441.768 570.3 441.762L568.171 441.483ZM572.126 442C572.064 441.992 572.036 441.957 572.045 441.894L573.774 428.956C573.781 428.906 573.809 428.884 573.859 428.891L577.385 429.332C578.077 429.41 578.684 429.655 579.205 430.068C579.738 430.483 580.137 431.001 580.4 431.623C580.665 432.233 580.753 432.883 580.663 433.574L579.956 438.981C579.861 439.709 579.598 440.352 579.167 440.909C578.738 441.453 578.206 441.863 577.57 442.137C576.933 442.412 576.244 442.507 575.501 442.422L572.126 442ZM574.634 439.971L575.802 440.124C576.266 440.185 576.677 440.072 577.034 439.787C577.403 439.503 577.617 439.135 577.676 438.683L578.386 433.257C578.438 432.855 578.332 432.49 578.069 432.162C577.819 431.823 577.493 431.633 577.089 431.593L575.768 431.439L574.634 439.971ZM581.013 443.162C580.95 443.154 580.923 443.118 580.931 443.056L582.642 430.115C582.648 430.065 582.677 430.043 582.727 430.05L584.837 430.325C584.887 430.332 584.909 430.36 584.902 430.411L583.229 443.356C583.221 443.419 583.192 443.447 583.142 443.44L581.013 443.162ZM586.758 443.913C586.708 443.907 586.687 443.872 586.695 443.809L588.099 433.07L585.65 432.75C585.587 432.742 585.56 432.707 585.568 432.644L585.862 430.536C585.869 430.486 585.897 430.464 585.948 430.471L593.107 431.407C593.17 431.415 593.198 431.444 593.191 431.494L592.915 433.604C592.907 433.667 592.878 433.695 592.828 433.689L590.36 433.366L588.975 444.107C588.966 444.17 588.937 444.198 588.887 444.191L586.758 443.913ZM594.169 444.882C594.132 444.877 594.116 444.849 594.123 444.799L594.841 439.451L593.311 431.51C593.305 431.458 593.328 431.435 593.378 431.442L595.469 431.715C595.532 431.724 595.566 431.754 595.572 431.805L596.304 437.056L598.379 432.172C598.398 432.124 598.433 432.103 598.483 432.109L600.593 432.385C600.644 432.392 600.659 432.419 600.64 432.468L597.112 439.671L596.421 445.1C596.415 445.15 596.386 445.172 596.336 445.165L594.169 444.882ZM606.506 446.495C606.456 446.488 606.435 446.453 606.443 446.391L606.731 444.186L602.662 443.654C602.611 443.648 602.59 443.613 602.598 443.55L602.869 441.478L608.097 433.443C608.129 433.396 608.17 433.376 608.22 433.382L610.349 433.66C610.386 433.665 610.402 433.693 610.395 433.743L609.304 442.242L610.622 442.415C610.685 442.423 610.712 442.458 610.704 442.521L610.436 444.575C610.428 444.638 610.398 444.666 610.348 444.659L609.011 444.484L608.722 446.688C608.714 446.751 608.685 446.779 608.635 446.773L606.506 446.495ZM605.102 441.693L607.024 441.944L607.561 437.837L605.102 441.693ZM611.37 447.13C611.307 447.122 611.28 447.087 611.288 447.024L612.999 434.083C613.005 434.033 613.034 434.011 613.084 434.018L615.194 434.294C615.244 434.3 615.266 434.329 615.259 434.379L613.586 447.324C613.578 447.387 613.549 447.415 613.499 447.409L611.37 447.13ZM615.306 447.645C615.256 447.638 615.234 447.61 615.241 447.56L615.519 445.431C615.526 445.381 615.554 445.359 615.604 445.365L617.733 445.644C617.784 445.65 617.805 445.679 617.799 445.729L617.521 447.858C617.514 447.908 617.486 447.93 617.435 447.923L615.306 447.645ZM622.387 448.762C621.721 448.675 621.128 448.425 620.607 448.012C620.1 447.588 619.714 447.071 619.449 446.462C619.184 445.852 619.096 445.209 619.184 444.53L619.337 443.362C619.406 442.835 619.57 442.358 619.83 441.932C620.092 441.494 620.416 441.121 620.801 440.813C620.564 440.476 620.39 440.096 620.279 439.672C620.183 439.238 620.165 438.789 620.225 438.324C620.311 437.671 620.539 437.1 620.909 436.612C621.294 436.113 621.77 435.741 622.339 435.496C622.907 435.251 623.512 435.17 624.153 435.254C624.793 435.338 625.349 435.577 625.822 435.97C626.308 436.353 626.674 436.829 626.919 437.398C627.164 437.966 627.244 438.577 627.159 439.23C627.098 439.695 626.959 440.118 626.744 440.498C626.54 440.88 626.28 441.21 625.963 441.488C626.258 441.872 626.469 442.308 626.596 442.797C626.737 443.288 626.772 443.798 626.703 444.325L626.551 445.493C626.462 446.171 626.21 446.777 625.796 447.311C625.395 447.833 624.897 448.228 624.3 448.495C623.703 448.762 623.065 448.851 622.387 448.762ZM623.527 440.039C623.854 440.082 624.145 439.999 624.403 439.79C624.674 439.57 624.833 439.284 624.879 438.932C624.925 438.581 624.845 438.264 624.639 437.981C624.446 437.7 624.186 437.539 623.859 437.496C623.533 437.453 623.234 437.542 622.962 437.762C622.691 437.982 622.532 438.268 622.486 438.619C622.442 438.959 622.523 439.269 622.728 439.552C622.934 439.834 623.2 439.997 623.527 440.039ZM622.682 446.501C623.072 446.552 623.417 446.451 623.719 446.196C624.033 445.943 624.217 445.61 624.271 445.195L624.424 444.027C624.476 443.625 624.383 443.262 624.145 442.937C623.92 442.601 623.613 442.408 623.224 442.357C622.835 442.306 622.483 442.407 622.169 442.659C621.855 442.912 621.671 443.246 621.617 443.66L621.464 444.828C621.411 445.23 621.504 445.6 621.74 445.938C621.979 446.263 622.293 446.45 622.682 446.501ZM630.418 442.473C629.978 442.416 629.585 442.249 629.238 441.974C628.903 441.7 628.647 441.36 628.47 440.954C628.306 440.549 628.253 440.127 628.31 439.687L628.485 438.35C628.544 437.898 628.705 437.497 628.968 437.148C629.243 436.801 629.577 436.544 629.969 436.378C630.375 436.202 630.798 436.142 631.238 436.199C631.69 436.259 632.084 436.425 632.418 436.699C632.755 436.96 633.005 437.293 633.169 437.697C633.333 438.102 633.386 438.53 633.327 438.983L633.152 440.32C633.093 440.772 632.926 441.172 632.65 441.519C632.389 441.856 632.062 442.113 631.668 442.292C631.274 442.47 630.857 442.531 630.418 442.473ZM628.143 449.323C628.08 449.315 628.065 449.281 628.099 449.221L637.308 437.261C637.352 437.216 637.393 437.196 637.43 437.201L639.616 437.486C639.679 437.494 639.694 437.522 639.662 437.569L630.472 449.532C630.439 449.591 630.397 449.618 630.347 449.611L628.143 449.323ZM630.58 440.942C630.831 440.975 631.05 440.914 631.236 440.76C631.424 440.593 631.535 440.377 631.569 440.113L631.739 438.813C631.772 438.562 631.718 438.338 631.578 438.141C631.44 437.931 631.245 437.81 630.993 437.777C630.742 437.744 630.516 437.81 630.316 437.976C630.13 438.13 630.02 438.333 629.987 438.584L629.817 439.884C629.784 440.136 629.844 440.367 629.995 440.578C630.146 440.79 630.341 440.911 630.58 440.942ZM636.728 450.637C636.288 450.579 635.895 450.413 635.548 450.138C635.213 449.864 634.957 449.524 634.78 449.118C634.616 448.713 634.563 448.291 634.62 447.851L634.795 446.513C634.854 446.061 635.015 445.661 635.278 445.312C635.553 444.965 635.887 444.708 636.279 444.542C636.685 444.365 637.108 444.306 637.548 444.363C638 444.422 638.394 444.589 638.728 444.862C639.065 445.123 639.315 445.456 639.479 445.861C639.643 446.266 639.696 446.694 639.637 447.146L639.462 448.484C639.403 448.936 639.236 449.336 638.96 449.683C638.699 450.019 638.372 450.277 637.978 450.455C637.584 450.634 637.168 450.694 636.728 450.637ZM636.909 449.108C637.16 449.141 637.378 449.08 637.565 448.926C637.753 448.759 637.864 448.543 637.898 448.28L638.068 446.98C638.101 446.728 638.047 446.504 637.907 446.307C637.768 446.097 637.573 445.976 637.322 445.943C637.071 445.91 636.845 445.977 636.645 446.142C636.459 446.297 636.349 446.499 636.316 446.751L636.146 448.051C636.113 448.302 636.173 448.533 636.324 448.744C636.475 448.956 636.67 449.077 636.909 449.108Z" fill="#D8B8FF"/>
<path d="M274.319 210.537C274.286 210.483 274.297 210.439 274.351 210.407L285.547 203.696C285.59 203.669 285.625 203.678 285.651 203.721L287.503 206.754C287.874 207.344 288.06 207.971 288.062 208.636C288.07 209.311 287.913 209.946 287.591 210.54C287.279 211.127 286.826 211.601 286.229 211.961L281.56 214.778C280.931 215.157 280.265 215.352 279.561 215.363C278.868 215.367 278.216 215.205 277.605 214.879C276.993 214.552 276.489 214.073 276.092 213.439L274.319 210.537ZM277.468 211.233L278.077 212.242C278.319 212.643 278.663 212.894 279.109 212.995C279.561 213.107 279.982 213.045 280.372 212.809L285.058 209.982C285.405 209.773 285.624 209.463 285.717 209.052C285.826 208.646 285.771 208.272 285.551 207.932L284.848 206.803L277.468 211.233ZM278.939 218.194C278.913 218.151 278.927 218.113 278.981 218.08L290.167 211.353C290.211 211.326 290.245 211.335 290.271 211.378L293.422 216.6C293.449 216.644 293.435 216.682 293.38 216.715L291.558 217.814C291.515 217.84 291.48 217.832 291.454 217.788L289.442 214.453L286.904 215.985L288.916 219.319C288.942 219.363 288.934 219.398 288.89 219.424L287.062 220.549C287.019 220.575 286.984 220.567 286.958 220.523L284.935 217.172L282.089 218.89L284.111 222.241C284.137 222.285 284.123 222.323 284.069 222.355L282.214 223.474C282.171 223.501 282.136 223.492 282.11 223.449L278.939 218.194ZM284.121 226.782C284.095 226.739 284.106 226.695 284.153 226.652L293.975 217.663C294.012 217.626 294.047 217.635 294.079 217.689L295.189 219.527C295.215 219.571 295.209 219.611 295.173 219.648L288.527 225.478L296.763 222.283C296.813 222.268 296.851 222.282 296.877 222.325L297.976 224.147C298.009 224.202 298 224.236 297.95 224.252L285.439 228.783C285.379 228.805 285.335 228.794 285.309 228.751L284.121 226.782ZM287.308 232.063C287.282 232.02 287.296 231.982 287.35 231.949L298.536 225.222C298.579 225.196 298.614 225.204 298.64 225.247L301.791 230.469C301.817 230.513 301.803 230.551 301.749 230.584L299.927 231.683C299.883 231.709 299.849 231.701 299.823 231.657L297.81 228.322L295.272 229.854L297.285 233.189C297.311 233.232 297.302 233.267 297.259 233.293L295.43 234.418C295.387 234.445 295.352 234.436 295.326 234.393L293.304 231.041L290.457 232.759L292.479 236.11C292.505 236.154 292.491 236.192 292.437 236.224L290.583 237.344C290.539 237.37 290.504 237.361 290.478 237.318L287.308 232.063ZM291.43 238.894C291.403 238.851 291.417 238.813 291.472 238.78L302.641 232.063C302.696 232.03 302.739 232.041 302.772 232.095L303.861 233.901C303.894 233.955 303.883 233.998 303.829 234.031L294.579 239.59L296.601 242.942C296.634 242.996 296.623 243.039 296.569 243.072L294.731 244.181C294.676 244.214 294.633 244.203 294.6 244.149L291.43 238.894ZM296.811 248.181C296.458 247.595 296.28 246.97 296.278 246.305C296.294 245.645 296.458 245.021 296.769 244.433C297.091 243.84 297.551 243.363 298.147 243.003L303.314 239.907C303.91 239.547 304.538 239.361 305.196 239.349C305.861 239.347 306.487 239.502 307.074 239.813C307.661 240.125 308.128 240.568 308.475 241.142C308.828 241.728 309.003 242.348 308.998 243.002C308.993 243.656 308.832 244.271 308.514 244.847C308.202 245.435 307.748 245.908 307.152 246.268L302.005 249.396C301.408 249.756 300.772 249.94 300.097 249.948C299.438 249.961 298.81 249.815 298.212 249.51C297.631 249.209 297.164 248.766 296.811 248.181ZM298.779 246.993C298.976 247.318 299.276 247.522 299.68 247.603C300.102 247.689 300.481 247.63 300.817 247.428L305.964 244.3C306.322 244.084 306.557 243.787 306.669 243.408C306.781 243.03 306.732 242.667 306.523 242.32C306.32 241.984 306.022 241.772 305.628 241.684C305.246 241.589 304.87 241.653 304.502 241.876L299.345 244.987C298.987 245.203 298.75 245.509 298.633 245.905C298.528 246.294 298.576 246.657 298.779 246.993ZM299.693 252.589C299.66 252.535 299.671 252.491 299.725 252.459L310.921 245.748C310.964 245.721 310.999 245.73 311.025 245.773L312.91 248.897C313.512 249.895 313.683 250.864 313.422 251.805C313.168 252.758 312.521 253.548 311.48 254.176C310.71 254.641 309.951 254.891 309.204 254.928C308.457 254.964 307.784 254.83 307.186 254.526C306.588 254.221 306.115 253.781 305.768 253.206L305.022 251.97L300.923 254.443C300.869 254.476 300.825 254.465 300.792 254.411L299.693 252.589ZM306.991 250.782L307.737 252.018C307.946 252.365 308.289 252.566 308.765 252.619C309.258 252.676 309.77 252.544 310.302 252.224C310.725 251.969 311.003 251.645 311.137 251.254C311.27 250.863 311.216 250.466 310.974 250.065L310.212 248.838L306.991 250.782ZM304.169 260.008C304.143 259.964 304.157 259.926 304.211 259.894L315.407 253.183C315.451 253.156 315.485 253.165 315.511 253.208L316.709 255.193C316.735 255.236 316.736 255.288 316.713 255.346L315.459 258.122L318.499 258.307C318.562 258.313 318.607 258.338 318.633 258.382L319.84 260.383C319.867 260.426 319.858 260.461 319.815 260.487L308.658 267.263C308.604 267.296 308.564 267.29 308.537 267.247L307.428 265.409C307.402 265.365 307.416 265.327 307.47 265.295L315.757 260.272L312.254 260.056L313.706 256.872L305.399 261.862C305.345 261.895 305.305 261.889 305.279 261.846L304.169 260.008ZM309.442 268.745C309.415 268.702 309.429 268.664 309.484 268.631L320.67 261.904C320.713 261.878 320.748 261.886 320.774 261.93L323.925 267.152C323.951 267.195 323.937 267.233 323.883 267.266L322.061 268.365C322.017 268.392 321.983 268.383 321.956 268.34L319.944 265.005L317.406 266.536L319.419 269.871C319.445 269.914 319.436 269.949 319.393 269.975L317.564 271.101C317.521 271.127 317.486 271.118 317.46 271.075L315.438 267.724L312.591 269.441L314.613 272.793C314.639 272.836 314.625 272.874 314.571 272.907L312.717 274.026C312.673 274.052 312.638 274.043 312.612 274L309.442 268.745ZM313.613 275.658C313.56 275.571 313.572 275.505 313.648 275.459L324.717 268.758C324.803 268.706 324.873 268.723 324.925 268.81L325.809 270.274L321.058 276.891L327.288 273.02C327.375 272.968 327.448 272.991 327.507 273.088L328.479 274.699C328.518 274.764 328.494 274.823 328.407 274.875L317.323 281.586C317.257 281.625 317.209 281.618 317.176 281.563L316.312 280.132L320.6 273.705L314.813 277.353C314.726 277.405 314.653 277.382 314.594 277.285L313.613 275.658ZM319.059 284.685C319.033 284.641 319.047 284.603 319.101 284.57L328.374 278.975L327.098 276.861C327.065 276.806 327.076 276.763 327.13 276.73L328.962 275.647C329.005 275.621 329.04 275.629 329.066 275.673L332.796 281.855C332.829 281.909 332.824 281.949 332.78 281.975L330.958 283.075C330.904 283.107 330.864 283.102 330.838 283.059L329.552 280.928L320.289 286.539C320.235 286.572 320.195 286.566 320.168 286.523L319.059 284.685ZM325.07 295.051C324.723 294.476 324.549 293.857 324.547 293.192C324.563 292.531 324.732 291.904 325.054 291.31C325.383 290.727 325.846 290.256 326.442 289.896L327.174 289.454C327.228 289.422 327.269 289.427 327.295 289.47L328.394 291.292C328.427 291.346 328.416 291.39 328.362 291.423L327.63 291.864C327.272 292.08 327.032 292.381 326.909 292.766C326.797 293.144 326.845 293.506 327.055 293.854C327.284 294.233 327.594 294.453 327.985 294.513C328.387 294.566 328.756 294.491 329.093 294.288L329.532 294.023C329.868 293.82 330.106 293.529 330.246 293.148C330.393 292.779 330.368 292.431 330.172 292.106L329.789 291.471C329.757 291.417 329.767 291.374 329.822 291.341L331.653 290.258C331.697 290.232 331.732 290.24 331.758 290.284L332.141 290.918C332.317 291.211 332.588 291.402 332.953 291.493C333.319 291.583 333.685 291.517 334.054 291.294L334.282 291.157C334.629 290.948 334.85 290.652 334.945 290.269C335.057 289.891 335.008 289.528 334.798 289.181C334.596 288.845 334.297 288.633 333.904 288.545C333.528 288.461 333.166 288.524 332.819 288.733L332.039 289.204C331.984 289.237 331.944 289.232 331.918 289.188L330.819 287.366C330.792 287.323 330.806 287.285 330.861 287.252L331.723 286.732C332.319 286.372 332.939 286.198 333.582 286.209C334.232 286.231 334.836 286.399 335.395 286.713C335.972 287.031 336.423 287.461 336.751 288.003C337.104 288.589 337.278 289.209 337.273 289.862C337.286 290.521 337.139 291.135 336.831 291.705C336.524 292.275 336.084 292.733 335.509 293.08L335.248 293.237C334.771 293.525 334.31 293.692 333.865 293.739C333.426 293.796 332.964 293.779 332.48 293.687C332.325 294.165 332.101 294.603 331.809 295.002C331.527 295.393 331.18 295.714 330.768 295.962L330.28 296.257C329.673 296.623 329.031 296.811 328.356 296.819C327.687 296.838 327.059 296.692 326.471 296.38C325.891 296.08 325.424 295.637 325.07 295.051ZM329.828 302.531C329.801 302.488 329.815 302.45 329.87 302.417L331.773 301.268L329.653 297.754C329.627 297.711 329.641 297.673 329.695 297.64L331.484 296.561L341.026 295.641C341.083 295.636 341.124 295.656 341.15 295.699L342.259 297.537C342.279 297.57 342.267 297.599 342.224 297.625L334.897 302.069L335.584 303.207C335.616 303.262 335.606 303.305 335.552 303.338L333.778 304.408C333.724 304.44 333.684 304.435 333.658 304.392L332.961 303.237L331.057 304.385C331.003 304.418 330.963 304.413 330.937 304.369L329.828 302.531ZM332.708 298.441L333.709 300.1L337.255 297.96L332.708 298.441ZM332.352 306.715C332.326 306.671 332.334 306.636 332.378 306.61L334.216 305.501C334.259 305.475 334.294 305.483 334.32 305.527L335.43 307.365C335.456 307.409 335.447 307.443 335.404 307.469L333.566 308.579C333.522 308.605 333.487 308.596 333.461 308.553L332.352 306.715ZM335.901 312.964C335.554 312.389 335.38 311.77 335.378 311.105C335.377 310.44 335.526 309.817 335.827 309.237C336.138 308.649 336.576 308.185 337.14 307.845L337.628 307.551C337.671 307.525 337.709 307.539 337.742 307.593L338.851 309.431C338.877 309.474 338.868 309.509 338.825 309.535L338.451 309.761C338.082 309.984 337.845 310.289 337.74 310.679C337.634 311.068 337.683 311.43 337.886 311.767C338.089 312.103 338.383 312.309 338.77 312.387C339.175 312.468 339.556 312.401 339.914 312.185L341.02 311.518C341.356 311.315 341.563 311.02 341.64 310.633C341.724 310.257 341.658 309.89 341.442 309.532C341.16 309.066 340.744 308.792 340.192 308.711L340.123 308.708L339.203 306.889C339.17 306.834 339.181 306.791 339.235 306.758L343.81 304.264L345.643 303.291C345.686 303.265 345.721 303.274 345.747 303.317L349.045 308.783C349.071 308.827 349.063 308.861 349.019 308.888L347.246 309.958C347.192 309.99 347.152 309.985 347.125 309.942L344.829 306.135L342.534 307.408C342.678 307.499 342.834 307.634 343.001 307.814C343.176 308.005 343.315 308.187 343.42 308.361C343.773 308.946 343.951 309.571 343.952 310.236C343.971 310.905 343.831 311.53 343.53 312.111C343.23 312.692 342.792 313.155 342.217 313.502L341.111 314.17C340.515 314.53 339.879 314.714 339.203 314.722C338.534 314.741 337.9 314.598 337.302 314.293C336.721 313.993 336.254 313.55 335.901 312.964ZM345.652 315.039C345.423 314.659 345.308 314.248 345.307 313.804C345.312 313.372 345.419 312.96 345.626 312.569C345.84 312.188 346.137 311.883 346.517 311.654L347.672 310.957C348.062 310.722 348.476 310.598 348.912 310.586C349.355 310.585 349.764 310.686 350.138 310.889C350.53 311.097 350.84 311.39 351.069 311.77C351.305 312.16 351.42 312.572 351.414 313.004C351.42 313.43 351.315 313.833 351.101 314.214C350.887 314.594 350.585 314.902 350.194 315.138L349.039 315.835C348.649 316.071 348.232 316.189 347.789 316.19C347.363 316.195 346.958 316.1 346.573 315.903C346.188 315.706 345.881 315.418 345.652 315.039ZM338.877 317.529C338.844 317.474 338.862 317.442 338.929 317.431L354.022 317.178C354.085 317.184 354.126 317.204 354.146 317.236L355.284 319.123C355.317 319.178 355.305 319.207 355.249 319.212L340.166 319.48C340.099 319.492 340.052 319.475 340.026 319.432L338.877 317.529ZM346.95 314.211C347.081 314.428 347.265 314.561 347.502 314.61C347.749 314.653 347.987 314.606 348.215 314.468L349.337 313.791C349.554 313.66 349.696 313.478 349.763 313.246C349.84 313.007 349.814 312.779 349.683 312.562C349.552 312.345 349.359 312.21 349.105 312.156C348.868 312.107 348.641 312.147 348.424 312.278L347.302 312.955C347.085 313.086 346.941 313.277 346.87 313.527C346.799 313.777 346.826 314.005 346.95 314.211ZM343.2 325.061C342.971 324.682 342.856 324.27 342.855 323.827C342.861 323.395 342.967 322.983 343.175 322.591C343.389 322.211 343.686 321.906 344.065 321.677L345.22 320.98C345.611 320.744 346.024 320.62 346.461 320.609C346.904 320.607 347.313 320.708 347.687 320.912C348.078 321.119 348.389 321.413 348.618 321.792C348.853 322.183 348.968 322.594 348.963 323.027C348.968 323.452 348.864 323.856 348.65 324.236C348.436 324.617 348.133 324.925 347.743 325.161L346.588 325.858C346.197 326.093 345.781 326.212 345.338 326.213C344.912 326.218 344.506 326.122 344.121 325.926C343.736 325.729 343.429 325.441 343.2 325.061ZM344.508 324.25C344.639 324.467 344.823 324.6 345.06 324.649C345.308 324.692 345.545 324.645 345.773 324.507L346.896 323.83C347.113 323.699 347.254 323.517 347.321 323.285C347.399 323.046 347.372 322.818 347.241 322.601C347.11 322.384 346.918 322.249 346.663 322.195C346.427 322.146 346.2 322.186 345.983 322.317L344.86 322.994C344.643 323.125 344.499 323.316 344.428 323.566C344.357 323.816 344.384 324.044 344.508 324.25Z" fill="#D8B8FF"/>
<path d="M274.584 610.07C274.555 610.112 274.514 610.114 274.462 610.078L263.788 602.566C263.746 602.537 263.74 602.502 263.769 602.46L265.097 600.561C265.126 600.519 265.173 600.497 265.236 600.495L268.282 600.516L267.218 597.662C267.198 597.601 267.203 597.55 267.232 597.509L268.571 595.594C268.6 595.552 268.635 595.546 268.677 595.575L279.395 603.025C279.447 603.061 279.459 603.1 279.43 603.142L278.199 604.901C278.17 604.943 278.13 604.945 278.078 604.909L270.126 599.371L271.349 602.661L267.85 602.625L275.78 608.194C275.832 608.23 275.843 608.269 275.814 608.311L274.584 610.07ZM279.941 602.245L270.595 592.833C270.56 592.794 270.558 592.753 270.587 592.712L272.166 590.454C272.195 590.413 272.234 590.401 272.282 590.42L284.275 596.048C284.334 596.074 284.345 596.113 284.309 596.165L283.1 597.893C283.071 597.934 283.027 597.942 282.968 597.916L281.712 597.293L280.231 599.41L281.248 600.376C281.292 600.423 281.3 600.467 281.271 600.509L280.062 602.237C280.033 602.278 279.993 602.281 279.941 602.245ZM278.783 597.934L279.828 596.439L275.006 594.017L274.365 593.708L274.897 594.173L278.783 597.934ZM285.08 595.063C285.051 595.104 285.01 595.107 284.958 595.071L274.283 587.559C274.242 587.53 274.236 587.494 274.265 587.453L276.464 584.308C276.856 583.747 277.356 583.331 277.963 583.06C278.567 582.772 279.2 582.65 279.863 582.697C280.516 582.736 281.133 582.959 281.714 583.365C282.098 583.634 282.406 583.934 282.638 584.266C282.859 584.591 283.024 584.907 283.133 585.215C283.232 585.516 283.289 585.765 283.306 585.963C284.321 585.838 285.249 586.069 286.089 586.657L289.292 588.874C289.344 588.91 289.352 588.954 289.316 589.006L288.085 590.766C288.056 590.807 288.026 590.817 287.995 590.795L284.772 588.541C284.398 588.28 283.982 588.19 283.523 588.271C283.062 588.334 282.696 588.558 282.428 588.942L281.709 589.97L286.276 593.187C286.328 593.223 286.339 593.262 286.31 593.304L285.08 595.063ZM279.841 588.663L280.777 587.324C281.002 587.002 281.082 586.633 281.018 586.217C280.953 585.801 280.75 585.473 280.407 585.234C280.075 585.001 279.703 584.926 279.29 585.009C278.884 585.08 278.565 585.282 278.333 585.614L277.396 586.953L279.841 588.663ZM290.333 587.552C290.304 587.593 290.263 587.596 290.211 587.559L279.552 580.058C279.5 580.022 279.489 579.983 279.518 579.942L280.737 578.198C280.767 578.156 280.807 578.154 280.859 578.19L284.549 580.771L282.553 575.735C282.533 575.674 282.538 575.623 282.567 575.582L283.819 573.791C283.848 573.75 283.876 573.754 283.903 573.804L286.317 579.503L294.844 580.969C294.9 580.977 294.903 581.017 294.852 581.09L293.523 582.99C293.487 583.042 293.445 583.058 293.396 583.039L287.348 581.94L287.823 583.084L291.529 585.675C291.581 585.712 291.592 585.751 291.563 585.792L290.333 587.552ZM295.437 580.253C295.408 580.295 295.368 580.297 295.316 580.261L284.63 572.765C284.589 572.735 284.582 572.7 284.611 572.659L288.107 567.661C288.136 567.619 288.176 567.617 288.228 567.653L289.972 568.872C290.014 568.902 290.02 568.937 289.991 568.978L287.758 572.17L290.187 573.869L292.42 570.677C292.449 570.636 292.484 570.629 292.526 570.658L294.296 571.873C294.337 571.902 294.344 571.938 294.315 571.979L292.071 575.187L294.796 577.092L297.039 573.885C297.068 573.843 297.109 573.841 297.161 573.877L298.936 575.118C298.977 575.147 298.983 575.183 298.954 575.224L295.437 580.253ZM301.055 572.22C301.026 572.262 300.986 572.264 300.934 572.228L292.059 566.021L290.643 568.045C290.607 568.097 290.563 568.105 290.511 568.069L288.778 566.834C288.737 566.805 288.73 566.769 288.759 566.728L292.897 560.811C292.934 560.759 292.972 560.748 293.014 560.777L294.758 561.996C294.81 562.033 294.821 562.072 294.792 562.113L293.366 564.153L302.251 570.344C302.303 570.38 302.315 570.419 302.286 570.461L301.055 572.22ZM304.381 567.465C304.344 567.517 304.3 567.525 304.248 567.489L293.563 559.992C293.521 559.963 293.515 559.928 293.544 559.886L294.764 558.143C294.793 558.101 294.828 558.095 294.869 558.124L305.577 565.589C305.629 565.626 305.64 565.664 305.611 565.706L304.381 567.465ZM306.711 564.134C306.652 564.217 306.587 564.233 306.514 564.182L295.9 556.782C295.817 556.724 295.805 556.654 295.863 556.571L296.843 555.169L304.818 556.828L298.753 552.703C298.67 552.645 298.661 552.569 298.727 552.476L299.805 550.934C299.848 550.872 299.912 550.87 299.995 550.928L310.624 558.339C310.687 558.382 310.7 558.43 310.663 558.482L309.705 559.852L302.091 558.539L307.773 562.35C307.856 562.408 307.865 562.484 307.799 562.577L306.711 564.134ZM313.812 554.311C313.42 554.872 312.924 555.282 312.325 555.543C311.725 555.804 311.094 555.911 310.43 555.865C309.764 555.801 309.14 555.565 308.559 555.159L303.623 551.707C303.063 551.315 302.644 550.821 302.365 550.224C302.084 549.61 301.963 548.976 302.002 548.324C302.048 547.66 302.264 547.054 302.648 546.504C303.048 545.933 303.547 545.517 304.147 545.256C304.743 544.978 305.37 544.867 306.025 544.924C306.681 544.981 307.3 545.212 307.881 545.619L308.597 546.12C308.639 546.149 308.642 546.189 308.605 546.241L307.386 547.985C307.357 548.027 307.321 548.033 307.28 548.004L306.688 547.59C306.294 547.314 305.887 547.2 305.468 547.247C305.056 547.283 304.734 547.467 304.501 547.8C304.291 548.101 304.227 548.458 304.309 548.871C304.398 549.273 304.609 549.591 304.941 549.823L309.877 553.275C310.219 553.514 310.595 553.607 311.004 553.553C311.402 553.492 311.71 553.305 311.928 552.994C312.16 552.662 312.233 552.303 312.147 551.918C312.068 551.523 311.852 551.202 311.499 550.955L310.736 550.421L309.974 551.511C309.938 551.563 309.894 551.571 309.842 551.535L308.098 550.315C308.046 550.279 308.038 550.235 308.075 550.183L310.111 547.271C310.14 547.23 310.18 547.227 310.232 547.263L312.817 549.071C313.398 549.477 313.83 549.988 314.111 550.602C314.389 551.199 314.509 551.823 314.47 552.476C314.431 553.129 314.211 553.74 313.812 554.311ZM319.646 545.638C319.61 545.69 319.566 545.698 319.514 545.661L317.755 544.431C317.734 544.416 317.72 544.391 317.714 544.356L315.126 536.819C315.083 536.681 315.003 536.54 314.887 536.397C314.768 536.236 314.651 536.116 314.537 536.036C314.236 535.826 313.885 535.742 313.483 535.786C313.071 535.822 312.749 536.007 312.517 536.339C312.292 536.661 312.224 537.023 312.313 537.426C312.399 537.81 312.629 538.134 313.003 538.395L313.766 538.929C313.818 538.965 313.826 539.009 313.789 539.061L312.57 540.805C312.541 540.846 312.5 540.849 312.448 540.812L311.685 540.279C311.104 539.872 310.673 539.362 310.391 538.748C310.117 538.123 310 537.485 310.039 536.832C310.085 536.169 310.293 535.573 310.664 535.043C311.056 534.483 311.557 534.076 312.167 533.822C312.767 533.561 313.394 533.46 314.05 533.516C314.713 533.563 315.315 533.775 315.854 534.152C316.197 534.392 316.501 534.697 316.767 535.069C317.04 535.43 317.239 535.808 317.364 536.205L319.358 542.005L321.808 538.502C321.837 538.46 321.873 538.454 321.914 538.483L323.674 539.714C323.726 539.75 323.737 539.789 323.708 539.83L319.646 545.638ZM324.432 538.796C324.395 538.847 324.351 538.855 324.299 538.819L322.54 537.589C322.519 537.574 322.506 537.549 322.499 537.514L319.911 529.977C319.868 529.839 319.789 529.698 319.673 529.555C319.553 529.394 319.436 529.274 319.322 529.194C319.021 528.983 318.67 528.9 318.268 528.944C317.856 528.98 317.534 529.165 317.302 529.497C317.077 529.818 317.009 530.181 317.098 530.583C317.185 530.968 317.415 531.291 317.788 531.553L318.551 532.086C318.603 532.123 318.611 532.167 318.575 532.219L317.355 533.962C317.326 534.004 317.286 534.007 317.234 533.97L316.471 533.437C315.889 533.03 315.458 532.52 315.177 531.906C314.902 531.281 314.785 530.642 314.824 529.99C314.87 529.326 315.079 528.73 315.449 528.201C315.841 527.64 316.342 527.233 316.952 526.98C317.552 526.719 318.18 526.617 318.835 526.674C319.499 526.72 320.1 526.932 320.64 527.31C320.982 527.549 321.286 527.855 321.552 528.226C321.825 528.587 322.024 528.966 322.149 529.362L324.144 535.163L326.594 531.66C326.623 531.618 326.658 531.612 326.7 531.641L328.459 532.871C328.511 532.908 328.522 532.946 328.493 532.988L324.432 538.796ZM329.413 531.673C329.384 531.715 329.349 531.721 329.307 531.692L327.548 530.461C327.506 530.432 327.5 530.397 327.529 530.355L328.759 528.596C328.788 528.555 328.824 528.548 328.865 528.577L330.625 529.808C330.666 529.837 330.672 529.872 330.643 529.914L329.413 531.673ZM331.818 528.234C331.789 528.276 331.756 528.268 331.718 528.211L325.04 518.764L322.067 523.015C322.038 523.056 322.003 523.062 321.961 523.033L320.264 521.847C320.212 521.81 320.201 521.771 320.23 521.73L324.444 515.704C324.473 515.663 324.513 515.66 324.565 515.696L326.309 516.916L333.156 526.156C333.193 526.213 333.197 526.262 333.168 526.304L331.818 528.234ZM331.405 516.46C331.151 516.823 330.821 517.095 330.417 517.276C330.019 517.446 329.599 517.516 329.157 517.485C328.723 517.443 328.324 517.296 327.96 517.042L326.855 516.269C326.481 516.007 326.2 515.679 326.012 515.285C325.832 514.881 325.758 514.466 325.792 514.042C325.823 513.599 325.966 513.197 326.22 512.833C326.481 512.46 326.811 512.188 327.208 512.017C327.595 511.84 328.006 511.772 328.441 511.813C328.875 511.854 329.28 512.006 329.653 512.267L330.759 513.04C331.132 513.302 331.41 513.634 331.59 514.039C331.768 514.426 331.845 514.835 331.821 515.267C331.798 515.699 331.659 516.096 331.405 516.46ZM336.428 521.642C336.392 521.694 336.355 521.692 336.318 521.635L329.966 507.941C329.946 507.881 329.947 507.835 329.969 507.804L331.232 505.998C331.268 505.946 331.3 505.945 331.327 505.995L337.69 519.673C337.727 519.73 337.731 519.779 337.702 519.821L336.428 521.642ZM330.122 515.609C330.267 515.401 330.314 515.179 330.263 514.942C330.202 514.699 330.062 514.5 329.844 514.348L328.77 513.597C328.562 513.451 328.338 513.396 328.099 513.429C327.849 513.455 327.651 513.572 327.506 513.779C327.361 513.987 327.315 514.218 327.369 514.472C327.42 514.709 327.549 514.899 327.757 515.045L328.831 515.796C329.039 515.941 329.271 515.996 329.529 515.959C329.786 515.923 329.984 515.806 330.122 515.609ZM341.56 514.636C341.306 514.999 340.977 515.271 340.572 515.452C340.175 515.622 339.755 515.692 339.313 515.661C338.878 515.62 338.479 515.472 338.116 515.218L337.01 514.445C336.637 514.183 336.356 513.856 336.168 513.461C335.987 513.057 335.914 512.642 335.948 512.218C335.979 511.776 336.121 511.373 336.375 511.01C336.637 510.636 336.966 510.364 337.364 510.194C337.751 510.016 338.161 509.948 338.596 509.989C339.031 510.03 339.435 510.182 339.809 510.443L340.914 511.216C341.288 511.478 341.565 511.811 341.746 512.215C341.924 512.602 342.001 513.012 341.977 513.443C341.953 513.875 341.814 514.272 341.56 514.636ZM340.288 513.769C340.433 513.562 340.481 513.34 340.43 513.103C340.368 512.859 340.229 512.661 340.011 512.509L338.936 511.757C338.729 511.612 338.505 511.556 338.265 511.589C338.015 511.615 337.818 511.732 337.672 511.94C337.527 512.148 337.482 512.378 337.536 512.633C337.587 512.869 337.716 513.06 337.924 513.205L338.998 513.957C339.206 514.102 339.438 514.156 339.695 514.12C339.953 514.083 340.15 513.967 340.288 513.769Z" fill="#D8B8FF"/>
<defs>
<linearGradient id="paint0_linear_1547_2" x1="416.805" y1="84.8037" x2="416.805" y2="748.804" gradientUnits="userSpaceOnUse">
<stop stop-color="#86C5FF" stop-opacity="0.66"/>
<stop offset="1" stop-color="white" stop-opacity="0"/>
</linearGradient>
<linearGradient id="paint1_linear_1547_2" x1="733.547" y1="317.312" x2="100.064" y2="516.296" gradientUnits="userSpaceOnUse">
<stop stop-color="#86C5FF" stop-opacity="0.66"/>
<stop offset="1" stop-color="white" stop-opacity="0"/>
</linearGradient>
<linearGradient id="paint2_linear_1547_2" x1="733.547" y1="317.312" x2="100.064" y2="516.296" gradientUnits="userSpaceOnUse">
<stop stop-color="#86C5FF" stop-opacity="0.66"/>
<stop offset="1" stop-color="white" stop-opacity="0"/>
</linearGradient>
</defs>
</svg>
